ply
format ascii 1.0
element vertex 1024
property float x
property float y
property float z
element face 0
property list uchar int vertex_indices
end_header
-0.0072502499999999998 0.065167699999999995 -0.047265000000000001
-0.0015032299999999999 0.068329899999999999 -0.046526199999999997
-0.0130837 0.067974000000000007 -0.046265899999999999
-0.016427799999999999 0.064774899999999996 -0.045777999999999999
-0.0072521199999999999 0.070288199999999995 -0.045577600000000003
-0.013393499999999999 0.069786299999999996 -0.045287300000000003
-0.0064253499999999998 0.052917899999999997 -0.045272800000000002
-0.0136525 0.0711397 -0.043864899999999998
-0.017170000000000001 0.061538200000000001 -0.044539599999999999
-0.0128498 0.052464499999999997 -0.0444605
-0.010470999999999999 0.058777599999999999 -0.043781399999999998
0.010534699999999999 0.065203499999999998 -0.043884600000000003
-0.022752700000000001 0.065001799999999998 -0.043451900000000002
0.0068792100000000002 0.059591499999999999 -0.043023100000000002
-0.0043822699999999997 0.078777 -0.043304799999999997
-0.0225285 0.062143400000000001 -0.042773600000000002
0.0127297 0.067616999999999997 -0.042582000000000002
0.010205199999999999 0.069899600000000006 -0.042492500000000002
0.00056643799999999995 0.072826199999999994 -0.042244200000000003
0.0045973300000000002 0.056153399999999999 -0.041097099999999998
0.0139463 0.068417199999999997 -0.041561599999999997
-0.00061797600000000001 0.074464100000000005 -0.042209499999999997
-0.023035400000000001 0.0525616 -0.040500500000000002
0.016622600000000001 0.067891800000000002 -0.040120500000000003
0.0015426699999999999 0.079109700000000005 -0.040365699999999997
0.014356499999999999 0.064241699999999999 -0.041887899999999999
-0.0051834200000000002 0.0508481 -0.0406165
-0.0042224100000000002 0.079106899999999994 -0.040471300000000002
0.0072851799999999996 0.073759500000000006 -0.040369200000000001
-0.024804799999999998 0.059688400000000003 -0.0397922
0.0182323 0.065931799999999999 -0.0394831
-0.013607899999999999 0.050703499999999999 -0.038470600000000001
0.00069948899999999997 0.053810400000000001 -0.037748200000000003
-0.023194200000000002 0.0580279 -0.038573200000000002
-0.029187299999999999 0.061448700000000002 -0.038358799999999998
-0.025961399999999999 0.071963899999999997 -0.037816799999999998
0.0137085 0.076548000000000005 -0.038444600000000002
-0.0169377 0.079227000000000006 -0.037653300000000001
-0.020515700000000001 0.051562900000000002 -0.037523500000000001
-0.00120509 0.088879299999999994 -0.037670200000000001
-0.025112700000000002 0.073689000000000004 -0.0369325
0.0010018200000000001 0.091982499999999995 -0.037027499999999998
0.015132 0.072440900000000003 -0.036479999999999999
-0.0041987300000000003 0.137185 -0.036835699999999999
-0.0012400600000000001 0.131137 -0.036580099999999997
0.0053744700000000001 0.12800400000000001 -0.036355400000000003
0.00060452599999999998 0.134552 -0.036458499999999998
0.00166315 0.055839199999999999 -0.035286499999999998
-0.034948199999999999 0.065211599999999995 -0.034615
-0.026882099999999999 0.075409500000000004 -0.035837399999999998
-0.0021759000000000001 0.086779200000000001 -0.035141100000000002
7.5772400000000007e-05 0.094450000000000006 -0.036201499999999998
0.00032188399999999998 0.13264799999999999 -0.036253000000000001
-0.0137013 0.053309500000000003 -0.035322300000000001
0.0138374 0.057838000000000001 -0.034858500000000001
-0.029169199999999999 0.076508999999999994 -0.0351705
-0.016863199999999998 0.085630200000000004 -0.034955600000000003
0.0014330499999999999 0.095239799999999999 -0.035263799999999998
-0.00101457 0.12826399999999999 -0.035854900000000002
0.010435399999999999 0.13120200000000001 -0.035098900000000002
-0.0074252700000000003 0.14039099999999999 -0.035688400000000002
-0.0043976400000000004 0.14612800000000001 -0.035826999999999998
-0.032778300000000003 0.061305600000000002 -0.035191600000000003
-0.0133892 0.086188899999999999 -0.034481999999999999
0.00717324 0.121811 -0.0350607
0.0046014200000000002 0.14593100000000001 -0.034974900000000003
-0.034178300000000002 0.061895600000000002 -0.034195499999999997
-0.0074389800000000004 0.12193 -0.035322600000000003
0.010106499999999999 0.089322700000000005 -0.034643899999999998
0.0107784 0.12820999999999999 -0.034389299999999998
0.0015097800000000001 0.058876999999999999 -0.034664399999999998
0.0013151599999999999 0.107096 -0.034475100000000002
0.010185400000000001 0.12531400000000001 -0.034198199999999998
0.0068342300000000002 0.092135300000000003 -0.0340221
0.012079899999999999 0.057200500000000001 -0.034044699999999997
-0.0078381700000000002 0.060645699999999997 -0.034213599999999997
0.0101391 0.091085100000000002 -0.033944799999999997
0.012633399999999999 0.13178100000000001 -0.033755100000000003
0.0071623499999999996 0.148817 -0.034007999999999997
-0.00139382 0.115617 -0.034019399999999998
0.0170241 0.091819700000000004 -0.0336563
0.010175500000000001 0.15157100000000001 -0.0336317
-0.014073199999999999 0.105364 -0.033579100000000001
-0.012718500000000001 0.122241 -0.033483300000000001
0.0039498299999999997 0.104421 -0.033346300000000002
-0.017413700000000001 0.14668900000000001 -0.033484600000000003
-0.0260273 0.054605500000000001 -0.031787700000000002
0.0061390000000000004 0.058222799999999998 -0.033329600000000001
0.0045191099999999998 0.060563400000000003 -0.031915699999999998
0.0257638 0.0680254 -0.031816200000000003
0.019744299999999999 0.073934 -0.032122199999999997
-0.0014029299999999999 0.079032599999999995 -0.031926099999999999
-0.0136434 0.079930200000000007 -0.031550500000000002
-0.00077727899999999997 0.088733500000000007 -0.032255600000000002
-0.019872799999999999 0.091813400000000003 -0.0322934
-0.0051658199999999998 0.093399200000000002 -0.032886100000000001
-0.0021406200000000002 0.098478599999999999 -0.032602300000000001
-0.0103207 0.107073 -0.033297100000000003
0.0081980200000000003 0.11337999999999999 -0.032945799999999997
-0.0132189 0.131217 -0.031410399999999998
-0.020255599999999999 0.14523 -0.032356700000000002
-0.0080356899999999998 0.14907899999999999 -0.0322292
-0.034473799999999999 0.0595358 -0.031426599999999999
-0.019742200000000001 0.085816699999999996 -0.032168299999999997
-0.0126608 0.092018199999999994 -0.032609399999999997
0.0053271899999999999 0.107032 -0.033100900000000003
-0.013800700000000001 0.115841 -0.032805899999999999
0.016013699999999999 0.13706699999999999 -0.031453099999999998
0.0012924099999999999 0.156304 -0.033017699999999997
-0.015656199999999999 0.118882 -0.031314500000000002
-0.020096300000000001 0.056138300000000002 -0.0314556
0.0071667199999999997 0.104255 -0.0319206
0.0045504600000000001 0.191774 -0.0322572
0.0043705699999999998 0.19789699999999999 -0.032523999999999997
-0.0166386 0.206733 -0.032461400000000001
-0.0231974 0.21569099999999999 -0.0311466
-0.0263269 0.098690899999999998 -0.031121800000000002
0.016645799999999999 0.14047100000000001 -0.031205400000000001
-0.0047323699999999996 0.194714 -0.031952300000000003
0.026056900000000001 0.203816 -0.031902699999999999
-0.0185734 0.060615200000000001 -0.030958400000000001
-0.0136218 0.094904199999999994 -0.031857499999999997
-0.026251900000000002 0.104195 -0.031706100000000001
-0.019578499999999999 0.15110000000000001 -0.031012700000000001
0.00155294 0.161714 -0.031913900000000002
0.00164686 0.188359 -0.031773700000000002
-0.016378199999999999 0.20404600000000001 -0.0314877
-0.034039 0.077000600000000002 -0.030653300000000001
0.010210800000000001 0.095346100000000003 -0.0311185
-0.019276700000000001 0.109666 -0.030628800000000001
0.013668100000000001 0.15487300000000001 -0.031090599999999999
-0.0043454100000000001 0.19144600000000001 -0.0316339
0.022412999999999999 0.20095399999999999 -0.031281799999999998
0.028905400000000001 0.212925 -0.030720500000000001
-0.0171135 0.098014400000000002 -0.031420900000000002
0.0013778499999999999 0.16766500000000001 -0.031271599999999997
0.0166619 0.20372999999999999 -0.031320599999999997
-0.010534699999999999 0.209676 -0.0307084
-0.0195304 0.14432200000000001 -0.030706000000000001
0.0105694 0.185195 -0.030853200000000001
-0.0163599 0.201378 -0.030619299999999999
-0.013908200000000001 0.218195 -0.030528099999999999
-0.0074093600000000003 0.16112599999999999 -0.030668999999999998
0.0015399000000000001 0.18228900000000001 -0.030818700000000001
0.0044280300000000003 0.203045 -0.030732499999999999
-0.028772099999999998 0.0889186 -0.030583599999999999
-0.0042985300000000001 0.16725400000000001 -0.0304233
0.028298 0.19478000000000001 -0.030397199999999999
-0.022880899999999999 0.055560100000000001 -0.029120400000000001
-0.032921100000000002 0.074399800000000002 -0.029808899999999999
-0.0097040100000000008 0.089012499999999994 -0.028919799999999999
0.021673700000000001 0.094526100000000002 -0.030335399999999998
-0.019034499999999999 0.113023 -0.0281824
0.018053400000000001 0.142369 -0.029668199999999999
0.015134399999999999 0.159495 -0.030542900000000001
0.0042909999999999997 0.17924599999999999 -0.030634399999999999
0.016304599999999999 0.19128999999999999 -0.0303246
-0.011105 0.211089 -0.030413800000000001
-0.0231472 0.21836800000000001 -0.029699900000000001
-0.023147399999999999 0.23894799999999999 -0.0305245
-0.034405900000000003 0.058201500000000003 -0.029180999999999999
0.0283109 0.065045099999999995 -0.0289009
0.013426799999999999 0.079242699999999999 -0.028185600000000002
-0.016301400000000001 0.085699999999999998 -0.028830000000000001
-0.029694600000000002 0.090239100000000003 -0.0296364
0.011059299999999999 0.093396199999999999 -0.029696199999999999
-0.022602199999999999 0.104168 -0.029803199999999998
0.0137933 0.118467 -0.029675799999999999
-0.0152587 0.13786000000000001 -0.030174200000000002
0.0168022 0.155136 -0.0291702
0.015868699999999999 0.15985199999999999 -0.030279
-0.0036706199999999999 0.169544 -0.0302673
0.010412100000000001 0.17923800000000001 -0.029233599999999998
0.017035000000000002 0.19048699999999999 -0.029861599999999999
-0.0095375400000000006 0.195441 -0.0302645
-0.0136171 0.19847100000000001 -0.030257800000000001
-0.017185599999999999 0.200096 -0.030107100000000001
0.0129091 0.20713100000000001 -0.0290342
-0.0121715 0.21268699999999999 -0.029979200000000001
-0.0287088 0.055449600000000002 -0.0289547
0.0044589499999999997 0.060849599999999997 -0.028880300000000001
-0.0072620000000000002 0.079079999999999998 -0.028804799999999998
0.0021410999999999999 0.088709999999999997 -0.0290715
-0.020942800000000001 0.101103 -0.0298818
-0.026448599999999999 0.109472 -0.028566999999999999
-0.019567600000000001 0.143433 -0.028602300000000001
-0.0103018 0.15792400000000001 -0.029557799999999999
-0.0045514400000000003 0.17923700000000001 -0.029135299999999999
-0.025853500000000001 0.19750400000000001 -0.029088300000000001
-0.0065037699999999999 0.20757900000000001 -0.029690299999999999
0.0199662 0.21861900000000001 -0.028340899999999999
-0.0045478899999999997 0.079048900000000005 -0.028983100000000001
0.0166713 0.16437499999999999 -0.028488800000000002
0.030958599999999999 0.19445299999999999 -0.028974900000000001
0.0287823 0.236625 -0.0292637
-0.022754 0.079729300000000003 -0.028607500000000001
0.013269400000000001 0.173321 -0.029096400000000001
-0.0397992 0.064833299999999996 -0.0282712
-0.0169126 0.131213 -0.028839199999999999
-0.0071589799999999997 0.17354600000000001 -0.028743299999999999
-0.025835199999999999 0.194415 -0.0286194
-0.022873299999999999 0.10959099999999999 -0.028296600000000002
-0.025438599999999999 0.185028 -0.028681700000000001
-0.028182100000000002 0.236979 -0.028327100000000001
0.024985299999999998 0.076875700000000005 -0.0281164
0.016369100000000001 0.10668900000000001 -0.028011500000000002
0.016582900000000001 0.115893 -0.028497100000000001
-0.0186226 0.131268 -0.027931000000000001
0.019496400000000001 0.15529699999999999 -0.027868199999999999
-0.0102702 0.167544 -0.0279644
0.016242400000000001 0.18212400000000001 -0.028469600000000001
0.031113700000000001 0.19145699999999999 -0.0281707
-0.025274899999999999 0.221613 -0.028160500000000002
0.0284167 0.23383200000000001 -0.027977399999999999
-0.018360499999999998 0.12076000000000001 -0.028022600000000002
-0.026206500000000001 0.17011000000000001 -0.027837600000000001
0.029142499999999998 0.21828700000000001 -0.0277529
-0.027631800000000001 0.173539 -0.027725400000000001
0.0248823 0.078714500000000007 -0.027903000000000001
-0.0094034600000000006 0.17657999999999999 -0.027831000000000002
-0.0290183 0.086566599999999994 -0.026104700000000002
0.031390000000000001 0.23145399999999999 -0.027443800000000001
-0.0259893 0.059074000000000002 -0.0260524
-0.022241899999999998 0.060899500000000002 -0.026216799999999998
0.0294875 0.068157800000000004 -0.026366500000000001
-0.0354615 0.073929700000000001 -0.026317799999999999
-0.0104785 0.079143699999999997 -0.0260804
-0.031897700000000001 0.086707900000000004 -0.026280299999999999
-0.0071688699999999999 0.088655700000000004 -0.025945599999999999
0.0051240299999999999 0.091134900000000005 -0.026819599999999999
0.010512799999999999 0.094758499999999996 -0.025816100000000002
-0.030805200000000001 0.101551 -0.026362
-0.023127100000000001 0.11114400000000001 -0.026483900000000001
-0.0198202 0.122487 -0.026507900000000001
0.023332200000000001 0.13111700000000001 -0.0262206
-0.0201333 0.14289299999999999 -0.0266821
0.020460599999999999 0.15174199999999999 -0.0267453
-0.0168805 0.15843599999999999 -0.025878999999999999
-0.0127549 0.16361200000000001 -0.027290999999999999
-0.011532300000000001 0.16783100000000001 -0.026939600000000001
-0.027253200000000002 0.17566499999999999 -0.0266927
-0.0112316 0.17902799999999999 -0.026806
0.029870799999999999 0.18545400000000001 -0.026255899999999999
-0.015677 0.18992999999999999 -0.0273592
-0.026276799999999999 0.20369100000000001 -0.026138700000000001
0.0086302199999999992 0.20533799999999999 -0.027254
0.013709300000000001 0.209673 -0.026104100000000002
-0.0093122099999999996 0.21329000000000001 -0.0259524
-0.0122343 0.218999 -0.026143300000000001
0.028708399999999999 0.223831 -0.027425499999999998
-0.0213396 0.23147899999999999 -0.0262867
-0.021285499999999999 0.23521 -0.026153099999999999
-0.0261155 0.240952 -0.025897300000000002
0.015935399999999999 0.059011800000000003 -0.026005
-0.0042982599999999999 0.079041600000000004 -0.025994199999999999
0.020871899999999999 0.11849999999999999 -0.026701900000000001
0.0230064 0.146257 -0.0265139
-0.028885600000000001 0.158466 -0.025983800000000001
-0.0112421 0.17358899999999999 -0.026596499999999999
0.020229199999999999 0.18202299999999999 -0.026724100000000001
0.031603399999999997 0.221551 -0.025982399999999999
0.033096599999999997 0.23779600000000001 -0.027085000000000001
-0.00713673 0.079082799999999995 -0.026051899999999999
-0.022868699999999999 0.112815 -0.025401099999999999
-0.0247309 0.16428000000000001 -0.025710799999999999
0.023702299999999999 0.18707599999999999 -0.026879900000000002
0.0014815 0.060990200000000001 -0.025480800000000001
0.0237839 0.14021600000000001 -0.026534599999999998
0.030721399999999999 0.215249 -0.0260606
-0.039118899999999998 0.060506799999999999 -0.026178799999999999
0.033653500000000003 0.23710899999999999 -0.0258024
-0.025071699999999999 0.060676000000000001 -0.0256306
-0.025862 0.15829599999999999 -0.025333100000000001
0.015332699999999999 0.060435999999999997 -0.0254407
0.021304500000000001 0.112817 -0.0247005
0.024597299999999999 0.134237 -0.0251043
0.025701999999999999 0.15493699999999999 -0.0257118
0.031160299999999998 0.16723499999999999 -0.025181599999999998
-0.0200491 0.18256600000000001 -0.024971899999999998
0.023787599999999999 0.23771 -0.025451600000000001
0.0094751799999999997 0.24075299999999999 -0.025150499999999999
0.024647700000000002 0.13710700000000001 -0.025412500000000001
0.024117 0.226215 -0.025068799999999999
0.030432600000000001 0.068170800000000004 -0.024609599999999999
-0.016220600000000002 0.182699 -0.0245925
0.0045162600000000002 0.086037699999999995 -0.0246994
0.00114138 0.23760999999999999 -0.024771999999999999
-0.027656699999999999 0.057950000000000002 -0.0246001
-0.026574500000000001 0.0954155 -0.023839200000000001
0.023288699999999999 0.122021 -0.022926999999999999
-0.0207818 0.154784 -0.023366999999999999
0.033413400000000003 0.19229099999999999 -0.024698700000000001
0.019624800000000001 0.22045300000000001 -0.022889900000000001
0.019443599999999998 0.056595800000000002 -0.022603100000000001
-0.029005 0.058920599999999997 -0.022484000000000001
0.0076065000000000004 0.060971299999999999 -0.0231892
0.028954799999999999 0.071338899999999997 -0.022783299999999999
-0.0103804 0.079201300000000002 -0.0225559
-0.032049599999999998 0.085967500000000002 -0.022683600000000002
0.016678700000000001 0.098114900000000005 -0.023095600000000001
-0.0318634 0.118509 -0.022471999999999999
-0.033605400000000001 0.128493 -0.022740799999999999
-0.0233242 0.14032600000000001 -0.023379500000000001
0.0316455 0.15191099999999999 -0.022785099999999999
0.022648499999999998 0.162909 -0.024448600000000001
0.021811299999999999 0.16750399999999999 -0.0229771
0.023304200000000001 0.178948 -0.023301200000000001
0.0335429 0.191242 -0.022640799999999999
0.032314000000000002 0.20380599999999999 -0.0225279
-0.0067126699999999996 0.21046599999999999 -0.022342600000000001
-0.016753799999999999 0.221938 -0.0229298
-0.021443400000000001 0.23105800000000001 -0.022699
0.0083783299999999998 0.238625 -0.023358799999999999
-0.0134336 0.24213799999999999 -0.022616399999999998
-0.013569400000000001 0.24512400000000001 -0.022634100000000001
0.0168559 0.060610799999999999 -0.0228188
0.030934400000000001 0.061964600000000002 -0.022605500000000001
-0.00722304 0.079103300000000001 -0.022989099999999998
0.0010102500000000001 0.082524600000000004 -0.023029299999999999
0.0076879799999999996 0.086242799999999994 -0.0232388
-0.0093559799999999999 0.090493699999999996 -0.022458800000000001
0.0231833 0.097292799999999999 -0.022478000000000001
-0.031579200000000002 0.113861 -0.022959199999999999
0.024474699999999999 0.12848899999999999 -0.0229486
-0.031663799999999999 0.13711699999999999 -0.023275000000000001
-0.030772999999999998 0.14852499999999999 -0.023450599999999999
0.030981000000000002 0.15485099999999999 -0.022443000000000001
-0.030703399999999999 0.164322 -0.022726099999999999
-0.023149400000000001 0.17361499999999999 -0.022686899999999999
-0.0144499 0.17634 -0.023753199999999999
-0.0187768 0.18212 -0.023956000000000002
0.032130800000000001 0.20099700000000001 -0.022636199999999999
0.032652500000000001 0.209623 -0.023003699999999998
-0.0126982 0.21913199999999999 -0.0224742
0.033091799999999998 0.226939 -0.023220399999999999
0.034394899999999999 0.23688200000000001 -0.022498899999999999
0.0099800400000000008 0.240286 -0.022640400000000001
0.0258398 0.242059 -0.022601400000000001
0.013493700000000001 0.24612100000000001 -0.022676200000000001
0.0199959 0.097949700000000001 -0.022207000000000001
-0.031264399999999998 0.14613100000000001 -0.022296400000000001
0.01387 0.060849300000000002 -0.022764699999999999
-0.027530800000000001 0.21803 -0.0226067
-0.0242478 0.15382699999999999 -0.023350599999999999
-0.0285778 0.24224399999999999 -0.022452900000000001
-0.042298599999999999 0.062690300000000004 -0.022306400000000001
-0.028924800000000001 0.10682800000000001 -0.021676299999999999
0.021792300000000001 0.17045099999999999 -0.022036300000000002
0.0333122 0.22794700000000001 -0.022106299999999999
-0.0236946 0.24110799999999999 -0.0224262
-0.029240200000000001 0.103848 -0.0218671
0.022960399999999999 0.245277 -0.022109400000000001
0.0291861 0.15842200000000001 -0.021432699999999999
-0.0195227 0.244978 -0.021799700000000002
-0.035518500000000001 0.057345899999999998 -0.0210119
0.031870999999999997 0.061839199999999997 -0.020009900000000001
0.0283447 0.0735595 -0.019297999999999999
0.0024416799999999999 0.082336099999999995 -0.019838000000000001
-0.0100965 0.089149300000000001 -0.0197898
0.022829800000000001 0.0981992 -0.0202407
0.0227049 0.109713 -0.0197336
0.0237553 0.12145 -0.021076299999999999
-0.0308674 0.12861600000000001 -0.02044
-0.0289752 0.13426399999999999 -0.019846300000000001
-0.031905500000000003 0.14283000000000001 -0.0198166
-0.031406499999999997 0.15365599999999999 -0.0215237
-0.018335400000000002 0.16289899999999999 -0.021108200000000001
-0.023653199999999999 0.170542 -0.0204067
0.0310338 0.179421 -0.020041199999999999
-0.0290698 0.18835399999999999 -0.0195426
0.0318004 0.203819 -0.019402599999999999
-0.0089870200000000001 0.21204400000000001 -0.020985500000000001
0.017608499999999999 0.21770400000000001 -0.0202705
0.032378900000000002 0.22086500000000001 -0.0197834
-0.0216194 0.230352 -0.019707800000000001
-0.000626328 0.234707 -0.020908400000000001
-0.019567299999999999 0.239451 -0.020160500000000001
-0.028711299999999999 0.24300099999999999 -0.0195958
0.016357199999999999 0.24304500000000001 -0.020003
0.0132792 0.24518000000000001 -0.020120200000000001
-0.0076903300000000004 0.061111800000000001 -0.019624300000000001
-0.040101999999999999 0.076649599999999998 -0.019439600000000001
-0.031351499999999997 0.085674899999999998 -0.019629000000000001
0.024851999999999999 0.125056 -0.019651600000000002
0.0282718 0.174148 -0.0210505
-0.0281935 0.212094 -0.019647999999999999
0.034553300000000002 0.23677400000000001 -0.019876700000000001
-0.0133831 0.0611038 -0.019772499999999998
0.023506200000000001 0.118862 -0.019933900000000001
0.013363099999999999 0.21340700000000001 -0.020509300000000001
-0.0308504 0.058358899999999998 -0.0195935
-0.036451600000000001 0.086440900000000001 -0.019773200000000001
-0.031639100000000003 0.139851 -0.019340599999999999
0.028898400000000001 0.176478 -0.020317600000000002
-0.0017001200000000001 0.23631199999999999 -0.019529000000000001
-0.022718499999999999 0.0611868 -0.019372500000000001
0.025738199999999999 0.101092 -0.019763200000000002
0.00829272 0.21695 -0.020511499999999998
-0.0294232 0.097820299999999999 -0.0193352
0.033630699999999999 0.24160200000000001 -0.0200036
-0.0043005500000000002 0.079207799999999995 -0.019184699999999999
-0.027884800000000001 0.10702299999999999 -0.019418700000000001
0.026785799999999998 0.156779 -0.019621099999999999
-0.0288233 0.17664099999999999 -0.019174400000000001
-0.028065699999999999 0.227404 -0.019109500000000001
-0.025646800000000001 0.245201 -0.0192979
-0.026004699999999999 0.16771800000000001 -0.019828200000000001
0.033374099999999997 0.21269199999999999 -0.019296299999999999
0.00108025 0.079606999999999997 -0.016679599999999999
0.0219115 0.0995616 -0.018511
0.029034999999999998 0.079234799999999994 -0.016605000000000002
-0.032395599999999997 0.092785699999999999 -0.0175522
-0.034877499999999999 0.115771 -0.016685499999999999
-0.016358000000000001 0.17341799999999999 -0.016709100000000001
0.0320965 0.211949 -0.016403999999999998
-0.023040100000000001 0.23424700000000001 -0.017402500000000001
0.013249500000000001 0.24304600000000001 -0.016636399999999999
-0.040880399999999997 0.058843699999999999 -0.016664600000000002
-0.043753399999999998 0.061950199999999997 -0.016744200000000001
-0.041316800000000001 0.072073700000000004 -0.0174558
0.0163868 0.079590599999999997 -0.016188500000000001
-0.020091600000000001 0.079735700000000007 -0.016831700000000002
0.0033445900000000001 0.083235600000000007 -0.018147199999999999
-0.019679499999999999 0.086290800000000001 -0.016458
0.012963799999999999 0.088884000000000005 -0.016122600000000001
0.017135000000000001 0.100442 -0.016463100000000001
-0.029163499999999998 0.11007599999999999 -0.016502599999999999
-0.033656699999999998 0.11425100000000001 -0.018290000000000001
-0.026158799999999999 0.12869700000000001 -0.016473000000000002
0.029040699999999999 0.142261 -0.0166234
0.0290967 0.151896 -0.016524
-0.016924100000000001 0.16771800000000001 -0.016721799999999998
-0.020024400000000001 0.17911099999999999 -0.016437799999999999
0.032342900000000001 0.18764400000000001 -0.016521000000000001
0.031158700000000001 0.206564 -0.016372500000000002
-0.028033300000000001 0.215582 -0.016821300000000001
0.010370000000000001 0.218612 -0.016714300000000001
-0.0146357 0.22103800000000001 -0.017391
0.025637299999999998 0.22749900000000001 -0.016345100000000001
0.026421500000000001 0.23435700000000001 -0.016305
0.0101215 0.23997199999999999 -0.016510199999999999
0.028912899999999998 0.243232 -0.016663899999999999
-0.016121199999999999 0.244369 -0.0168278
-0.0133542 0.245503 -0.016651099999999999
-0.044743600000000001 0.065337699999999999 -0.0167391
-0.034392100000000002 0.091596499999999997 -0.0164206
0.031228100000000002 0.20382700000000001 -0.016847399999999998
-0.022966899999999998 0.24251300000000001 -0.016709600000000002
-0.016454699999999999 0.082324999999999995 -0.0165101
-0.027167 0.22476299999999999 -0.017794299999999999
-0.0045759099999999999 0.0610705 -0.017050099999999999
0.030975800000000001 0.218025 -0.016327700000000001
-0.0103518 0.061132300000000001 -0.016314200000000001
0.0037437199999999999 0.090615600000000004 -0.016766199999999998
0.023469400000000001 0.113041 -0.016009599999999999
-0.025693500000000001 0.131742 -0.016360300000000001
-0.021342199999999999 0.162993 -0.016284199999999999
-0.0261411 0.206571 -0.0160976
0.0073047099999999998 0.22062799999999999 -0.0160777
-0.0135975 0.24201900000000001 -0.016286800000000001
0.030595600000000001 0.078773800000000005 -0.0159019
0.0043191100000000001 0.22722000000000001 -0.015889899999999998
-0.0262031 0.182064 -0.015954599999999999
0.0012268699999999999 0.090804300000000004 -0.0136881
0.031621499999999997 0.24011299999999999 -0.015788900000000002
-0.0105319 0.079574599999999995 -0.013386
-0.040042599999999998 0.086542499999999994 -0.013234599999999999
0.028967099999999999 0.10496 -0.014784800000000001
-0.028901900000000001 0.135107 -0.015411899999999999
-0.0208991 0.18138599999999999 -0.015318999999999999
-0.026934199999999998 0.214479 -0.015092
0.025570900000000001 0.224601 -0.013821699999999999
-0.0238844 0.23991399999999999 -0.0151787
-0.022734899999999999 0.079401600000000003 -0.013901999999999999
0.029477099999999999 0.21906500000000001 -0.0135841
-0.017917700000000002 0.082734600000000005 -0.014944600000000001
-0.034695299999999998 0.107031 -0.0135184
-0.0320615 0.12789800000000001 -0.0151051
-0.020562500000000001 0.165128 -0.0144149
0.031160799999999999 0.185002 -0.0130305
0.019229599999999999 0.21837599999999999 -0.0138884
0.0036787500000000002 0.22179399999999999 -0.0140923
0.031400200000000003 0.23594599999999999 -0.0134413
0.025812399999999999 0.0546093 -0.013352899999999999
-0.0099768300000000008 0.061108299999999997 -0.0139808
-0.032023500000000003 0.106944 -0.014009499999999999
-0.028876599999999999 0.15190100000000001 -0.0140395
0.001694 0.061012900000000002 -0.0136975
-0.0190986 0.085273299999999996 -0.0132479
-0.029162 0.116353 -0.012896599999999999
0.033598500000000003 0.23302400000000001 -0.013892099999999999
-0.0132864 0.24268300000000001 -0.0133279
-0.032901600000000003 0.059020099999999999 -0.013750200000000001
-0.032061600000000003 0.060925399999999998 -0.0128529
-0.044852799999999998 0.068973099999999996 -0.0138806
-0.041602699999999999 0.076543399999999998 -0.0133636
-0.034635800000000001 0.085671700000000003 -0.013147000000000001
-0.0375435 0.091509999999999994 -0.012866499999999999
-0.030084199999999998 0.101864 -0.0137471
-0.037438300000000001 0.11272600000000001 -0.0129815
-0.031955200000000003 0.13148000000000001 -0.0141604
-0.032979099999999997 0.14104900000000001 -0.013101
0.0301161 0.150169 -0.0143284
-0.023245499999999999 0.1615 -0.0133145
0.0262446 0.17621200000000001 -0.0130776
-0.025155500000000001 0.19425000000000001 -0.013724699999999999
-0.0099811299999999995 0.21035599999999999 -0.013043300000000001
-0.025529699999999999 0.21828800000000001 -0.013690000000000001
0.023895199999999998 0.223273 -0.0139025
0.033676900000000003 0.230633 -0.0128285
0.0079081299999999993 0.236738 -0.013016
-0.019740199999999999 0.24241199999999999 -0.0134409
0.0052026499999999996 0.246952 -0.012932900000000001
0.0066000900000000003 0.082427299999999995 -0.0131983
-0.022898700000000001 0.18782399999999999 -0.0131871
-0.0135602 0.061139199999999998 -0.013355799999999999
0.030102 0.20738799999999999 -0.012966699999999999
-0.036602999999999997 0.108075 -0.012623499999999999
-0.027084400000000002 0.13659299999999999 -0.0123897
0.023778899999999999 0.054264800000000002 -0.0121332
0.0130098 0.095302799999999993 -0.0110364
-0.029020799999999999 0.13842699999999999 -0.011553300000000001
0.031752700000000002 0.19148699999999999 -0.011478800000000001
0.0201041 0.218246 -0.0113574
0.012213 0.243534 -0.0117275
0.0082787999999999994 0.082573099999999997 -0.010608599999999999
-0.033390200000000002 0.14482500000000001 -0.01221
0.031893400000000002 0.18196000000000001 -0.0125148
0.019283600000000001 0.060959699999999999 -0.0115017
0.0085560700000000007 0.085785299999999995 -0.011295599999999999
0.0344444 0.20092499999999999 -0.0106222
-0.022968499999999999 0.061207999999999999 -0.010647500000000001
-0.031526499999999999 0.079872600000000002 -0.0104701
0.0015965599999999999 0.091530600000000004 -0.0106978
-0.031939000000000002 0.115539 -0.0104595
0.034459700000000003 0.155137 -0.0102284
-0.0187347 0.173539 -0.010674100000000001
0.031901499999999999 0.209366 -0.0103284
-0.0014450400000000001 0.21947700000000001 -0.0108904
0.0028842 0.227742 -0.011939200000000001
-0.0014441199999999999 0.242178 -0.0114158
0.013318399999999999 0.061093300000000003 -0.010262800000000001
-0.025619400000000001 0.091661699999999999 -0.0102197
-0.018852799999999999 0.176566 -0.0107136
-0.016592800000000001 0.21257899999999999 -0.011318699999999999
-0.0345793 0.056859600000000003 -0.010166700000000001
0.0340197 0.061838499999999998 -0.0100914
0.021908299999999999 0.060756900000000003 -0.0098284099999999992
-0.045714400000000002 0.067993399999999996 -0.010137699999999999
-0.042356900000000003 0.078796199999999997 -0.010069399999999999
-0.028696200000000002 0.085405499999999995 -0.0105129
-0.0125069 0.087983400000000003 -0.0099702599999999999
0.0104429 0.092173500000000005 -0.0108171
0.0165311 0.102462 -0.0113489
-0.0372725 0.107025 -0.010391900000000001
0.022474299999999999 0.11271200000000001 -0.010262800000000001
-0.0286462 0.121304 -0.0102776
0.0280907 0.13408800000000001 -0.010399800000000001
-0.034437200000000001 0.14017199999999999 -0.0098907400000000003
0.0330716 0.14882100000000001 -0.0113723
0.028480100000000001 0.161825 -0.010854000000000001
0.0249546 0.16752500000000001 -0.010151500000000001
0.034676999999999999 0.17927999999999999 -0.010276
-0.023049300000000002 0.197772 -0.010119899999999999
-0.0078050200000000002 0.21246399999999999 -0.0101525
0.0138894 0.219275 -0.010308299999999999
0.0081482199999999994 0.222582 -0.01001
0.033421899999999997 0.230629 -0.0112964
0.0067187100000000001 0.24515899999999999 -0.011290700000000001
-0.022633299999999999 0.085601300000000005 -0.010147400000000001
-0.0286942 0.139962 -0.0099402399999999995
0.0071149400000000002 0.239846 -0.010669100000000001
0.0336073 0.202629 -0.0100593
0.0285889 0.16431899999999999 -0.0099061400000000008
0.033546600000000003 0.19439600000000001 -0.00992176
0.0313429 0.054075600000000001 -0.0094186300000000008
0.014075300000000001 0.10313600000000001 -0.0094425900000000007
0.023953599999999999 0.17272899999999999 -0.0096049299999999994
0.0048175600000000002 0.24282400000000001 -0.0098906399999999992
-0.037744699999999999 0.088382100000000005 -0.0075744000000000002
-0.034864899999999997 0.12848100000000001 -0.0075059899999999997
0.026142599999999998 0.215335 -0.0092618800000000001
0.0119948 0.087796600000000002 -0.0088854899999999994
0.034091700000000003 0.167602 -0.0079284999999999998
0.021244599999999999 0.21329600000000001 -0.0090693000000000006
-0.0167268 0.061159100000000001 -0.0075849999999999997
-0.034521099999999999 0.087980799999999998 -0.00718157
0.029033900000000001 0.106916 -0.0076737300000000001
-0.022714600000000001 0.161215 -0.0073575799999999998
0.025491300000000001 0.17912500000000001 -0.0082378599999999996
0.025422500000000001 0.053092199999999999 -0.00702836
0.032129600000000001 0.059058600000000003 -0.00721881
-0.0013309999999999999 0.061022199999999999 -0.0076787499999999998
0.034805900000000001 0.068121299999999996 -0.0072501800000000002
-0.041304599999999997 0.073685600000000004 -0.0071476600000000001
-0.0424473 0.078936699999999999 -0.0070977000000000002
0.010409 0.082838899999999993 -0.0073134200000000002
-0.029078699999999999 0.087026999999999993 -0.0083944799999999993
-0.040135900000000002 0.089795799999999995 -0.00737814
0.0043352199999999999 0.095005400000000004 -0.0072196400000000003
-0.0329862 0.0992585 -0.0071606999999999999
0.0135432 0.10406700000000001 -0.0068875100000000003
0.02962 0.108712 -0.0082167000000000004
-0.028689900000000001 0.115596 -0.0076109000000000003
-0.035409400000000001 0.12506700000000001 -0.0072706799999999999
0.0291445 0.13697500000000001 -0.0071243799999999996
-0.027963200000000001 0.14282 -0.0070020999999999998
-0.023611500000000001 0.15826200000000001 -0.0072423499999999998
0.031761900000000003 0.16772000000000001 -0.0068869600000000001
-0.0187108 0.176506 -0.0077520499999999999
-0.020383800000000001 0.18797 -0.0071987500000000003
0.033898999999999999 0.195186 -0.0072549099999999998
0.027165999999999999 0.20519999999999999 -0.0088280200000000007
0.031375899999999998 0.20957999999999999 -0.0080604600000000002
0.016172300000000001 0.218468 -0.00722012
0.028693900000000001 0.053304499999999998 -0.00763155
0.0014149099999999999 0.079459600000000005 -0.0070158399999999998
0.027962399999999998 0.13391500000000001 -0.0071172600000000003
-0.021128500000000001 0.19441800000000001 -0.0079477999999999997
-0.022267100000000001 0.061172400000000002 -0.0070251699999999999
0.025460400000000001 0.18204000000000001 -0.0077405499999999997
0.032815900000000002 0.17621400000000001 -0.0069863
0.032442100000000001 0.179151 -0.00699755
-0.0162255 0.19733400000000001 -0.0069601899999999998
-0.019743199999999999 0.19401199999999999 -0.0064048400000000002
0.016581499999999999 0.115746 -0.0066273599999999997
0.020950099999999999 0.172871 -0.0065557699999999998
0.0310595 0.19430900000000001 -0.0062640700000000001
0.019673199999999998 0.20376900000000001 -0.0066779700000000001
0.0201847 0.197966 -0.0063873300000000001
-0.034803199999999999 0.089343099999999995 -0.0055096900000000002
-0.037266800000000003 0.109364 -0.0054257300000000001
-0.028607 0.14314199999999999 -0.00464381
-0.0129908 0.196107 -0.0059297000000000004
-0.025038000000000001 0.088563500000000003 -0.0050099599999999999
0.0133819 0.109678 -0.0047017400000000003
0.021981199999999999 0.18507000000000001 -0.0055597600000000004
0.025434999999999999 0.052476000000000002 -0.0042646100000000003
0.021941200000000001 0.060828800000000002 -0.0043971699999999997
0.016637800000000001 0.061187900000000003 -0.0042412500000000002
0.0106975 0.079569100000000004 -0.0045961600000000002
0.0260062 0.082721900000000001 -0.0045483399999999997
-0.0378591 0.089768200000000006 -0.0041504599999999999
-0.010625600000000001 0.094790100000000002 -0.0041930200000000004
-0.0306576 0.11223900000000001 -0.0049273399999999997
-0.029156499999999998 0.12975400000000001 -0.0058195900000000004
-0.024865399999999999 0.13744500000000001 -0.0042894200000000004
0.032130199999999998 0.161888 -0.0041484499999999997
0.020393000000000001 0.17593600000000001 -0.0045876099999999998
0.021865200000000001 0.182175 -0.0044798499999999996
-0.019204300000000001 0.19161600000000001 -0.0054816200000000004
-0.012840000000000001 0.20116800000000001 -0.0043720800000000004
0.016549500000000002 0.21837999999999999 -0.0042790500000000004
0.032085099999999998 0.059076200000000002 -0.00444459
-0.0072153299999999998 0.061186499999999998 -0.00446504
0.034799700000000003 0.068067799999999998 -0.0043989399999999996
-0.042542999999999997 0.077294199999999993 -0.0045011199999999999
0.0166509 0.087447899999999995 -0.0050717699999999998
-0.026249499999999999 0.096280599999999994 -0.0056478400000000003
-0.0361806 0.10548299999999999 -0.0050851799999999999
-0.031741199999999997 0.12242699999999999 -0.0042372800000000004
-0.033974900000000002 0.14021600000000001 -0.0043792800000000002
-0.026443299999999999 0.152556 -0.0049904399999999996
0.031878400000000001 0.16777600000000001 -0.0044278099999999999
0.020339099999999999 0.17358499999999999 -0.0042714900000000002
-0.019188 0.18779699999999999 -0.0054985199999999998
0.031535500000000001 0.197575 -0.0044325900000000001
0.018642200000000001 0.20719399999999999 -0.0045225500000000002
-0.0041693499999999996 0.21826999999999999 -0.0045153199999999998
0.0092548200000000004 0.223359 -0.0043593700000000004
-0.031599799999999997 0.12839500000000001 -0.0047632300000000002
-0.035043900000000003 0.10686900000000001 -0.0044131600000000002
0.029408699999999999 0.13980000000000001 -0.0039776999999999998
-0.015361400000000001 0.085952799999999996 -0.0037287700000000002
0.0153061 0.11654100000000001 -0.0035393199999999999
0.028983499999999999 0.16261900000000001 -0.00359597
0.017983200000000001 0.20599500000000001 -0.0035919699999999999
0.016479500000000001 0.191416 -0.0035643200000000002
-0.0082925399999999993 0.19273999999999999 -0.0032284800000000002
-0.0015980600000000001 0.092599200000000007 -0.00141186
0.032051999999999997 0.170401 -0.00194049
-0.040372900000000003 0.056531600000000001 -0.0013791599999999999
0.032406400000000002 0.071400500000000006 -0.00144845
-0.0018182000000000001 0.079497600000000002 -0.00172832
0.025827599999999999 0.083592399999999997 -0.00141669
-0.025004200000000001 0.088403099999999998 -0.0017520700000000001
0.0014574 0.092424999999999993 -0.0014191
-0.038489099999999998 0.095099799999999998 -0.0024951399999999999
-0.024543499999999999 0.10162499999999999 -0.00289273
-0.030556799999999999 0.108875 -0.0024748999999999999
-0.025243999999999999 0.122365 -0.0013462000000000001
0.023030499999999999 0.13106300000000001 -0.00174209
-0.032134599999999999 0.140459 -0.0013185899999999999
-0.033390499999999997 0.14171800000000001 -0.0028880099999999999
0.031389100000000003 0.14893899999999999 -0.0019915800000000002
-0.023342399999999999 0.15915000000000001 -0.00158471
-0.0205772 0.16547600000000001 -0.00144597
0.0192896 0.179234 -0.0026317100000000002
-0.015717700000000001 0.184835 -0.0019931200000000001
-0.010193199999999999 0.19499 -0.0015561100000000001
0.018591699999999999 0.20979900000000001 -0.0021862299999999999
0.00062799299999999998 0.22267799999999999 -0.00127461
-0.0134685 0.0611844 -0.0015724999999999999
0.034636199999999999 0.067846299999999998 -0.0015332799999999999
0.0013320599999999999 0.079585100000000006 -0.0016916699999999999
0.0071286500000000003 0.095563700000000001 -0.00114685
-0.0260845 0.10688599999999999 -0.00154689
0.030550399999999998 0.14354700000000001 -0.00183187
0.018763200000000001 0.17636599999999999 -0.0013342600000000001
-0.0104049 0.19046299999999999 -0.0025490299999999999
0.018572399999999999 0.21237300000000001 -0.0017885500000000001
0.026884399999999999 0.0512419 -0.00191348
0.0042940000000000001 0.061180699999999998 -0.0012725
-0.0235661 0.089753700000000006 -0.0011499699999999999
-0.024921499999999999 0.109931 -0.0010330999999999999
-0.0085955100000000006 0.210871 -0.00157858
0.0074346300000000002 0.0612049 -0.0014599999999999999
0.026372900000000001 0.14003599999999999 -0.00091930899999999999
0.029698700000000001 0.15823699999999999 -0.0012159
0.01076 0.10713399999999999 -0.00059253500000000005
-0.017147699999999998 0.10351 -0.00051603700000000001
-0.023922200000000001 0.12803700000000001 -0.00073317100000000002
0.021040799999999998 0.168374 -0.00054153399999999998
-0.014586500000000001 0.10014000000000001 -0.00044027200000000002
-0.028907800000000001 0.10698199999999999 -0.00012501799999999999
-0.016641900000000001 0.079683599999999993 0.0015395299999999999
0.0164283 0.079768900000000004 0.00156902
-0.0068089999999999999 0.095143500000000006 0.0011688499999999999
0.00133578 0.18725 0.0014384700000000001
0.032269800000000001 0.052748200000000002 0.0018410099999999999
-0.041497199999999998 0.058885300000000002 0.00140299
-0.031837699999999997 0.0612469 0.00139371
0.0137628 0.061290900000000002 0.0013212499999999999
-0.045390199999999999 0.067348599999999995 0.00062983099999999997
0.029727300000000002 0.073666400000000007 0.0013592700000000001
-0.010106499999999999 0.079430100000000003 0.00133409
-0.017411900000000001 0.082671400000000006 0.0011839000000000001
-0.017539900000000001 0.085604799999999995 0.0014232800000000001
0.0039146700000000003 0.092771500000000007 0.00050359000000000005
-0.0137325 0.101063 0.00174803
-0.0198902 0.106963 0.00119238
0.0105288 0.112674 0.00059191199999999999
-0.0187926 0.11579399999999999 0.0014345600000000001
0.016705299999999999 0.11880499999999999 0.00019689800000000001
-0.023768399999999999 0.12498099999999999 0.00125304
0.022904299999999999 0.134658 0.0016544400000000001
-0.028864600000000001 0.13728899999999999 0.0013982599999999999
0.0288185 0.14582899999999999 0.000296011
-0.023175100000000001 0.14905399999999999 0.0015606299999999999
0.027386500000000001 0.15348899999999999 0.00109589
0.0262207 0.16150400000000001 0.0014403
0.0221979 0.16667299999999999 0.0014848400000000001
0.018414799999999999 0.17560799999999999 0.00066864799999999999
0.0128635 0.18560699999999999 0.00035811600000000001
-0.0095058599999999997 0.19280800000000001 0.0012426399999999999
0.014064999999999999 0.203267 0.00181964
0.017202700000000001 0.209592 0.00114379
0.0146394 0.21945999999999999 0.0018415599999999999
0.0072744899999999998 0.22356699999999999 0.0014584800000000001
-0.013170299999999999 0.079585299999999998 0.0015347099999999999
0.033001500000000003 0.061105699999999999 0.0016214000000000001
-0.016661499999999999 0.12514500000000001 0.0021602499999999998
0.026361900000000001 0.0806867 0.0025996499999999998
0.030041499999999999 0.058072699999999998 0.0020645699999999999
0.00771304 0.10671600000000001 0.0023026399999999999
-0.019654000000000001 0.127414 0.0019600199999999998
0.014471100000000001 0.17982500000000001 0.002398
0.0076932800000000003 0.11816400000000001 0.0025970400000000001
0.0204505 0.13370599999999999 0.0027235699999999998
-0.015088300000000001 0.12581800000000001 0.0034618000000000001
-0.040410000000000001 0.055702799999999997 0.0046300500000000001
0.0324015 0.061368600000000002 0.0045170499999999999
0.031430899999999998 0.071184200000000003 0.0043693899999999999
-0.018754900000000001 0.080393300000000001 0.0043192899999999999
-0.0326498 0.084415000000000004 0.0034570400000000002
-0.00057975599999999996 0.093843399999999993 0.0028855999999999999
0.0091921399999999997 0.10191699999999999 0.0032670899999999998
-0.00029243500000000001 0.11081000000000001 0.0027975000000000001
0.0018057399999999999 0.118837 0.0039273099999999998
-0.025271100000000001 0.12527199999999999 0.00452535
-0.026099899999999999 0.13997200000000001 0.0043525999999999999
-0.021463400000000001 0.14907200000000001 0.0039174500000000003
0.021308000000000001 0.16642199999999999 0.0044071800000000001
-0.0133898 0.17974100000000001 0.0045399799999999999
0.00146777 0.18718199999999999 0.0044630199999999998
0.0099703299999999995 0.19505600000000001 0.0041732999999999996
-0.0119112 0.20732800000000001 0.0044389800000000004
0.030943499999999999 0.0551151 0.00415351
0.0070908799999999999 0.061331499999999997 0.0043397000000000002
0.0333269 0.062679200000000004 0.0038357999999999999
0.0040620600000000001 0.079464499999999993 0.00456639
0.00038047899999999997 0.095987199999999995 0.00313649
-0.016815099999999999 0.10945000000000001 0.0029325800000000002
-0.0177685 0.113561 0.0029735899999999999
0.0016153700000000001 0.121985 0.0038707799999999999
-0.022247599999999999 0.13131899999999999 0.0036511400000000002
0.025891500000000001 0.152332 0.0043412900000000003
-0.016017300000000002 0.17011599999999999 0.0044412000000000002
-0.00148131 0.18193599999999999 0.0045259000000000002
0.010450600000000001 0.19771900000000001 0.00464029
-0.00367257 0.21753 0.0044297499999999997
-0.042309699999999999 0.060223699999999998 0.0037157399999999999
-0.0071219500000000002 0.0794126 0.0046406299999999998
0.00185615 0.103655 0.004561
-0.014068600000000001 0.11561399999999999 0.0043654200000000001
-0.027910600000000001 0.12895599999999999 0.00339989
0.023110200000000001 0.13947200000000001 0.0048969800000000004
-0.0285656 0.15442400000000001 0.00363146
0.0043115100000000002 0.222443 0.0042858599999999998
0.0040806100000000001 0.124944 0.0047791500000000002
-0.0047475900000000003 0.079302700000000004 0.0044493400000000004
-0.0041250200000000001 0.11271200000000001 0.0044267100000000004
0.0207619 0.059944999999999998 0.00509714
0.0138656 0.130915 0.0048809099999999996
0.0053037700000000002 0.118939 0.0050683300000000002
-0.036782200000000001 0.0538304 0.0053118699999999998
0.0147289 0.20927299999999999 0.0056265200000000003
-0.0042191099999999999 0.098129800000000003 0.0055067099999999997
0.0068237300000000001 0.180039 0.00571361
0.025946199999999999 0.079671400000000003 0.0071176099999999999
-0.017328400000000001 0.127937 0.0078638200000000005
0.0226564 0.0525348 0.00726671
-0.031454999999999997 0.056117 0.0075161000000000004
0.030775299999999998 0.059956299999999997 0.0063172300000000001
0.0016065000000000001 0.061433500000000002 0.0073941700000000003
-0.043389400000000002 0.067992800000000006 0.0074073200000000002
0.027987000000000001 0.073534799999999997 0.0073306200000000004
-0.0100894 0.079598699999999994 0.0077530899999999998
0.0100909 0.079694399999999999 0.00709729
-0.020214900000000001 0.085218199999999994 0.0068384199999999996
-0.0064475499999999998 0.093162999999999996 0.0063566200000000003
-0.00230079 0.099062200000000003 0.0062816599999999997
-0.0129573 0.104144 0.0075827100000000003
0.0091001899999999993 0.110114 0.0068477900000000003
0.0024996699999999998 0.11602 0.0074506499999999996
-0.0076169300000000001 0.11865000000000001 0.0068989799999999999
0.0050244 0.12526599999999999 0.0070330499999999999
0.0098293900000000003 0.128853 0.00640341
-0.019205199999999999 0.137909 0.0066062500000000001
0.022017200000000001 0.140375 0.0069891700000000003
0.0221646 0.14615500000000001 0.0070694099999999999
-0.021476700000000001 0.15476799999999999 0.0065200400000000004
-0.018310099999999999 0.16630800000000001 0.0066103899999999998
0.018224299999999999 0.17274200000000001 0.0064774999999999998
-0.014418200000000001 0.17825299999999999 0.0063977499999999998
0.0076957199999999996 0.17877399999999999 0.0072881400000000002
0.0043049400000000002 0.18908700000000001 0.0071907999999999998
0.0082619900000000003 0.194296 0.0073576800000000001
0.0105609 0.204038 0.0071887399999999999
-0.0044052900000000001 0.21251 0.0079757200000000004
0.010012399999999999 0.220363 0.0062546800000000003
-0.0073934999999999999 0.061440599999999998 0.0077275
-0.0076697900000000001 0.210003 0.0080124099999999993
-0.0106859 0.11272799999999999 0.0068159900000000001
-0.013476800000000001 0.061453399999999998 0.0076441699999999996
-0.041507200000000001 0.061194900000000003 0.0081291499999999999
-0.017100899999999999 0.13447600000000001 0.0081308200000000004
0.023375900000000002 0.16198499999999999 0.0078515300000000007
-0.00134133 0.17626900000000001 0.0079486999999999995
0.0041878999999999996 0.21937400000000001 0.0080903099999999999
-0.0045676500000000004 0.200629 0.0083502300000000002
-0.0105521 0.177374 0.0084681500000000007
0.0079097999999999998 0.13056999999999999 0.00865083
-0.038420900000000001 0.056381100000000003 0.0109319
0.022701499999999999 0.079781299999999999 0.0099566600000000009
-0.0144861 0.115438 0.0091866099999999996
-0.019413900000000001 0.14265700000000001 0.0101461
0.015706100000000001 0.17515500000000001 0.0093188999999999998
0.0113007 0.21551799999999999 0.0086983700000000004
0.0282968 0.0590754 0.0100223
0.031463499999999998 0.064729499999999995 0.0103978
-0.0076580800000000003 0.079604300000000003 0.010367700000000001
-0.035466499999999998 0.080537499999999998 0.0103438
-0.013878 0.12535199999999999 0.0101499
0.0022836100000000002 0.12979599999999999 0.0090330199999999992
0.0187925 0.13825200000000001 0.0093235499999999999
0.022801800000000001 0.15479699999999999 0.0106196
-0.0042014900000000004 0.17325699999999999 0.010150599999999999
-0.0098595699999999998 0.176042 0.0096241199999999999
-0.0014229799999999999 0.19747899999999999 0.0097797700000000001
0.0118651 0.212475 0.0089523599999999995
-0.037767299999999997 0.052247099999999998 0.010386599999999999
0.0047971799999999998 0.061573200000000002 0.0100999
-0.013002 0.079671900000000004 0.0101338
0.0051755400000000002 0.110538 0.0091004199999999997
0.0049859300000000004 0.12187199999999999 0.010590199999999999
0.0043127399999999998 0.12992600000000001 0.0090399999999999994
0.022296799999999999 0.15193000000000001 0.010505
-0.0073344500000000002 0.17365700000000001 0.010441600000000001
-0.0068973300000000001 0.194661 0.0100219
0.0103172 0.209564 0.0095448000000000009
-0.0076174700000000003 0.061542199999999998 0.0103981
-0.013072 0.12854599999999999 0.0100587
0.0043625799999999996 0.079744099999999998 0.010356000000000001
-0.012959099999999999 0.13142499999999999 0.0103561
0.00131744 0.20971400000000001 0.0106073
0.0080856599999999997 0.133933 0.0107578
0.026856600000000001 0.058324599999999997 0.01095
0.0169477 0.1401 0.011431999999999999
0.0042431400000000003 0.20683799999999999 0.010262800000000001
0.020576400000000002 0.14891699999999999 0.0114755
0.013399299999999999 0.17022200000000001 0.0113375
0.0045330600000000002 0.200991 0.0117856
0.0013419599999999999 0.13353300000000001 0.011776
-0.038358299999999998 0.052324599999999999 0.0139597
0.016601899999999999 0.056101699999999997 0.0135622
-0.025753100000000001 0.059214000000000003 0.0138548
-0.0166088 0.061701199999999998 0.0136858
0.0076029399999999999 0.061579399999999999 0.013687299999999999
-0.038208699999999998 0.071501300000000004 0.013612000000000001
0.025766500000000001 0.079284599999999997 0.0133563
0.0017262899999999999 0.079774600000000001 0.0133265
0.023189600000000001 0.079847500000000002 0.0130949
-0.023753 0.084445900000000004 0.012252000000000001
0.0075487699999999998 0.12869900000000001 0.0135791
0.010351000000000001 0.13710600000000001 0.0131028
-0.013152 0.146152 0.013175600000000001
-0.016544699999999999 0.15828100000000001 0.0135478
-0.0132751 0.16692599999999999 0.0131425
0.0076933100000000001 0.17296300000000001 0.013421199999999999
0.0091940100000000007 0.17536099999999999 0.0122974
-0.0073448899999999998 0.079724600000000007 0.01354
0.0153457 0.14016200000000001 0.0125962
0.0074209200000000001 0.12517300000000001 0.013076600000000001
-0.0042434999999999999 0.061702399999999998 0.013327500000000001
-0.035572100000000002 0.057079400000000002 0.0144026
0.013596 0.14014799999999999 0.0139972
0.0135914 0.16780900000000001 0.014133099999999999
-0.00220367 0.17128099999999999 0.014478100000000001
0.017347600000000001 0.0539158 0.015928000000000001
0.025889800000000001 0.070828699999999994 0.016739500000000001
-0.0230677 0.079984200000000005 0.016577600000000001
-0.0065919400000000001 0.13748299999999999 0.015752100000000002
0.0093494500000000005 0.169822 0.0151576
-0.0288781 0.051829199999999999 0.016202000000000001
-0.0221271 0.061133100000000003 0.015735200000000001
0.016280200000000002 0.079847100000000004 0.015774400000000001
0.016024799999999999 0.14894299999999999 0.0160199
-0.0013558699999999999 0.16983400000000001 0.016500999999999998
-0.020278899999999999 0.079911899999999994 0.016468199999999999
-0.0123695 0.14855399999999999 0.015499799999999999
-0.024407999999999999 0.058041200000000001 0.015681199999999999
-0.0169248 0.079877100000000006 0.016289999999999999
-0.00423895 0.14308799999999999 0.0158931
-0.0261359 0.052705599999999998 0.016901800000000002
-0.0094410499999999994 0.139625 0.015298600000000001
-0.038450600000000001 0.064815800000000007 0.016705899999999999
-0.0044259700000000004 0.14047100000000001 0.0159825
-0.032389899999999999 0.074028099999999999 0.016820399999999999
-0.032520800000000002 0.051065300000000001 0.017291000000000001
0.0073964399999999998 0.13752800000000001 0.0168589
-0.023411700000000001 0.0538743 0.017560900000000001
0.0046163300000000001 0.14313000000000001 0.017237200000000001
0.0085805800000000008 0.16794200000000001 0.017571
-0.034139999999999997 0.055071099999999998 0.018907400000000001
0.00437492 0.061309599999999999 0.019517
0.019757299999999998 0.073355900000000002 0.019755399999999999
0.0072379000000000002 0.14598 0.018775199999999999
-0.0117115 0.15946199999999999 0.017627799999999999
0.0100093 0.16437199999999999 0.018641700000000001
-0.00115368 0.16933899999999999 0.019601799999999999
-0.015971599999999999 0.079929 0.019290000000000002
0.024471400000000001 0.054615299999999999 0.018466699999999999
0.016501700000000001 0.0798764 0.019697800000000001
-0.0095168900000000001 0.152146 0.0184637
-0.0040351600000000003 0.079878099999999994 0.019677500000000001
0.013033599999999999 0.079890600000000006 0.019727499999999999
-0.018751400000000001 0.060610700000000003 0.018753300000000001
0.021529699999999999 0.078854800000000003 0.019252700000000001
-0.0023436899999999998 0.16861100000000001 0.019362000000000001
-0.0233102 0.080004000000000006 0.020102499999999999
0.0231314 0.061328399999999998 0.020386700000000001
-0.0075631500000000003 0.15468999999999999 0.019564100000000001
0.0102711 0.15823599999999999 0.020098499999999998
0.00148168 0.148808 0.020439499999999999
0.017919999999999998 0.074325199999999994 0.020524000000000001
0.0044198299999999996 0.15818599999999999 0.020432100000000002
-0.0287239 0.052326699999999997 0.0224846
-0.015318500000000001 0.058269799999999997 0.0212561
-0.0023090300000000001 0.15512699999999999 0.0208389
-0.00060656499999999999 0.16966800000000001 0.021146999999999999
0.0133475 0.079934000000000005 0.022357700000000001
-0.013223199999999999 0.058849100000000001 0.0217702
0.016653000000000001 0.076455700000000001 0.022580900000000001
0.0011014499999999999 0.15293000000000001 0.021255300000000001
0.0014711800000000001 0.058290000000000002 0.022305100000000001
-0.022437499999999999 0.054687300000000001 0.023208099999999999
0.022482599999999998 0.064875299999999997 0.022901399999999999
0.0017621799999999999 0.167516 0.022074799999999999
-0.0071952400000000003 0.061142799999999997 0.022215599999999999
-0.026447499999999999 0.058614600000000003 0.023260300000000001
-0.029312299999999999 0.060914500000000003 0.0236945
-0.026724999999999999 0.053921200000000002 0.024725799999999999
0.016627900000000001 0.070888300000000001 0.0256183
0.01043 0.079705499999999999 0.025837499999999999
0.0133347 0.076772199999999999 0.025014000000000002
-0.019803999999999999 0.056382799999999997 0.025984199999999999
0.018851799999999998 0.0621583 0.024927499999999998
0.0108326 0.076359399999999994 0.025949400000000001
-0.0226863 0.059025300000000003 0.026026899999999999
-0.029061400000000001 0.068066600000000005 0.026127500000000001
0.0012172999999999999 0.0580759 0.026018699999999999
0.0072686199999999999 0.075752899999999998 0.026909200000000001
0.010295 0.059542699999999997 0.027829199999999998
0.013323700000000001 0.070443500000000006 0.0280714
0.0160602 0.067744399999999996 0.027835700000000001
0.0070932299999999998 0.079410999999999995 0.028021299999999999
-0.0229853 0.061766000000000001 0.028343900000000002
-0.010675499999999999 0.079724199999999995 0.028887400000000001
-0.019101300000000002 0.077644099999999994 0.027746099999999999
0.0014663600000000001 0.073547000000000001 0.0288933
-0.019547999999999999 0.061339299999999999 0.029575899999999999
-0.0070339499999999998 0.0762679 0.029441800000000001
0.00143921 0.060132499999999998 0.030895800000000001
0.010344600000000001 0.064944699999999994 0.030725800000000001
0.0044194100000000004 0.0704766 0.031523500000000003
-0.0043666 0.072552599999999995 0.030795300000000001
-0.019483899999999998 0.068092200000000005 0.0312114
-0.010436000000000001 0.0711648 0.0318868
-0.0071447799999999999 0.071127800000000005 0.0322577
0.0043978100000000003 0.067955299999999996 0.032649600000000001
-0.010329100000000001 0.065000299999999997 0.033495999999999998
-0.00122244 0.068004700000000001 0.033578400000000001
-0.0041434999999999996 0.069574999999999998 0.033264099999999998
