ply
format ascii 1.0
element vertex 256
property float x
property float y
property float z
element face 0
property list uchar int vertex_indices
end_header
-0.0072502499999999998 0.065167699999999995 -0.047265000000000001
-0.0072521199999999999 0.070288199999999995 -0.045577600000000003
-0.017170000000000001 0.061538200000000001 -0.044539599999999999
0.010211700000000001 0.067886699999999994 -0.0436251
0.0127297 0.067616999999999997 -0.042582000000000002
0.0139463 0.068417199999999997 -0.041561599999999997
0.0015426699999999999 0.079109700000000005 -0.040365699999999997
0.0072851799999999996 0.073759500000000006 -0.040369200000000001
0.0022645400000000002 0.054459300000000002 -0.037628000000000002
-0.025940000000000001 0.076800199999999999 -0.037663000000000002
0.015880499999999999 0.076719499999999996 -0.037149799999999997
0.0012260400000000001 0.13749500000000001 -0.036550600000000003
0.0229491 0.068051899999999999 -0.034864199999999998
0.00559064 0.133575 -0.036196600000000002
-0.020046700000000001 0.086202899999999999 -0.034822499999999999
0.0027896499999999999 0.14014499999999999 -0.036022499999999999
-0.0079758599999999995 0.131415 -0.035734799999999997
-0.0015248 0.122396 -0.0346244
-0.0102004 0.137045 -0.0345537
0.0042649200000000002 0.11005 -0.033954999999999999
0.012954500000000001 0.091179200000000002 -0.033688299999999997
-0.015180600000000001 0.105311 -0.0333998
0.00124059 0.060720400000000001 -0.031739299999999998
-0.022980799999999999 0.086485599999999996 -0.031468000000000003
-0.0015141499999999999 0.104116 -0.032536000000000002
-0.0084908799999999993 0.146254 -0.032873600000000003
0.019965 0.095252400000000001 -0.031667500000000001
-0.0072025800000000001 0.079075999999999994 -0.031580799999999999
0.013582 0.19186600000000001 -0.031487099999999997
-0.028541400000000001 0.101282 -0.031275699999999997
0.024974 0.060134100000000003 -0.030867700000000001
0.0075793400000000004 0.16439999999999999 -0.0318161
-0.016427199999999999 0.100838 -0.031448299999999998
0.0166398 0.206535 -0.030881700000000002
-0.012946600000000001 0.20363500000000001 -0.031256600000000002
-0.025575000000000001 0.20688599999999999 -0.030752700000000001
-0.0252462 0.209733 -0.030525900000000002
0.026981600000000001 0.062101799999999999 -0.0297895
0.0139574 0.122208 -0.0298187
0.0095244500000000003 0.20486699999999999 -0.029838300000000002
0.025846600000000001 0.059540799999999998 -0.028785600000000001
0.0043174800000000003 0.091971200000000003 -0.028844499999999999
0.0192208 0.14888499999999999 -0.028377200000000002
0.0138072 0.184948 -0.0290108
0.0071671599999999997 0.20457 -0.028920100000000001
0.028166799999999999 0.067632300000000006 -0.028866200000000002
0.0166631 0.125227 -0.029102800000000002
0.0042719799999999999 0.20418900000000001 -0.029069999999999999
0.029184100000000001 0.18784999999999999 -0.0288074
0.028903700000000001 0.18511900000000001 -0.029007700000000001
0.0313072 0.23947399999999999 -0.028432599999999999
0.0134045 0.10088900000000001 -0.028188899999999999
0.0301868 0.162692 -0.028163799999999999
-0.0262112 0.230847 -0.028261700000000001
-0.028157700000000001 0.16767599999999999 -0.028074000000000002
0.030889799999999999 0.18904099999999999 -0.027589700000000002
0.0264893 0.071822999999999998 -0.026275699999999999
-0.029519400000000001 0.090432999999999999 -0.0267785
-0.031634599999999999 0.112805 -0.025733200000000001
0.0286152 0.15515200000000001 -0.026308100000000001
-0.026400199999999999 0.17949100000000001 -0.0258134
-0.026186600000000001 0.20683299999999999 -0.0260472
-0.026623299999999999 0.221113 -0.0267704
-0.020286800000000001 0.242781 -0.0260009
0.022737199999999999 0.15454100000000001 -0.026544000000000002
-0.0292508 0.23666499999999999 -0.026204100000000001
-0.019578399999999999 0.18523500000000001 -0.025702099999999999
0.033489499999999998 0.23356099999999999 -0.025715999999999999
0.0044588099999999997 0.24526400000000001 -0.0252876
0.031339199999999998 0.16498399999999999 -0.025127199999999999
-0.0214291 0.134575 -0.024979600000000001
0.0020292299999999999 0.082495200000000005 -0.0246339
-0.0347289 0.118864 -0.0229135
0.0046250099999999997 0.24621299999999999 -0.0228154
0.026018800000000002 0.079243599999999997 -0.0231991
-0.031357700000000002 0.12854299999999999 -0.022568999999999999
0.028147100000000001 0.16769400000000001 -0.0226979
-0.027259499999999999 0.209679 -0.0244166
-0.0134336 0.24213799999999999 -0.022616399999999998
-0.00722304 0.079103300000000001 -0.022989099999999998
0.0231833 0.097292799999999999 -0.022478000000000001
-0.030772999999999998 0.14852499999999999 -0.023450599999999999
0.031437899999999998 0.17596700000000001 -0.022757699999999999
-0.0126982 0.21913199999999999 -0.0224742
0.0258398 0.242059 -0.022601400000000001
0.01387 0.060849300000000002 -0.022764699999999999
-0.042298599999999999 0.062690300000000004 -0.022306400000000001
-0.0236946 0.24110799999999999 -0.0224262
0.016926099999999999 0.0992754 -0.020589699999999999
0.0024416799999999999 0.082336099999999995 -0.019838000000000001
0.0237553 0.12145 -0.021076299999999999
-0.031406499999999997 0.15365599999999999 -0.0215237
-0.0290698 0.18835399999999999 -0.0195426
0.032965700000000001 0.224828 -0.020041199999999999
-0.025778300000000001 0.24302000000000001 -0.020627800000000002
0.0191991 0.079186199999999998 -0.019491100000000001
-0.027775500000000002 0.22134300000000001 -0.0199352
-0.0103038 0.21276700000000001 -0.019772999999999999
0.023738200000000001 0.17562 -0.020083899999999998
0.031944800000000002 0.242149 -0.019531400000000001
-0.032053100000000001 0.118711 -0.019731499999999999
-0.017561400000000001 0.24482999999999999 -0.0190308
-0.0196987 0.224664 -0.0166239
-0.027240400000000001 0.197353 -0.0179519
-0.032042899999999999 0.059260300000000002 -0.016619100000000001
-0.017356400000000001 0.080018400000000003 -0.016700400000000001
0.019787900000000001 0.101357 -0.016443200000000002
0.032739999999999998 0.14624899999999999 -0.0171889
0.031708 0.19131200000000001 -0.016615499999999998
-0.016425200000000001 0.221779 -0.0162823
0.0099499299999999992 0.243142 -0.0163629
-0.023313400000000001 0.17919599999999999 -0.0173093
-0.027836400000000001 0.24292 -0.017561299999999998
0.0131115 0.095164499999999999 -0.016265700000000001
-0.0123368 0.21529200000000001 -0.015930199999999999
0.0289512 0.24046799999999999 -0.015736199999999999
0.0047805199999999999 0.079503199999999996 -0.013766
-0.0265571 0.191444 -0.0153416
-0.029957500000000001 0.106542 -0.0150651
-0.026946299999999999 0.13443099999999999 -0.013639099999999999
0.031307599999999998 0.22178300000000001 -0.0135347
-0.034799499999999997 0.12845999999999999 -0.013655199999999999
-0.017642700000000001 0.17349600000000001 -0.0141467
-0.044385399999999998 0.061789499999999997 -0.0130379
0.0260869 0.099366599999999999 -0.0139638
-0.0334594 0.144145 -0.013429699999999999
0.0303538 0.20624300000000001 -0.0135739
0.0269877 0.23508000000000001 -0.0138473
0.028781500000000002 0.107157 -0.013167
-0.0021323100000000001 0.24296499999999999 -0.012648
-0.018487 0.17255400000000001 -0.0121671
0.025373699999999999 0.103342 -0.012083399999999999
-0.022089999999999999 0.164132 -0.0105719
-0.034579600000000002 0.104604 -0.010407700000000001
-0.0049907299999999996 0.21597 -0.010752899999999999
-0.025993100000000002 0.085715100000000002 -0.010311499999999999
-0.040189299999999997 0.057913199999999998 -0.0102179
-0.037590899999999997 0.079569699999999993 -0.0101382
0.030589399999999999 0.107492 -0.010354
-0.0264946 0.137321 -0.010234399999999999
0.030608799999999999 0.17633399999999999 -0.0116101
0.0104511 0.22142800000000001 -0.0101928
-0.028156500000000001 0.11848499999999999 -0.0100824
0.02222 0.121332 -0.0099089899999999995
0.029018700000000001 0.21523500000000001 -0.0097990400000000002
-0.026126900000000002 0.080767800000000001 -0.0079002800000000008
-0.031401100000000001 0.087111599999999997 -0.0087001000000000005
0.019673 0.21228900000000001 -0.0077297599999999996
-0.042442100000000003 0.072507799999999997 -0.0072011999999999996
-0.031290800000000001 0.091615000000000002 -0.0070150000000000004
0.030467500000000002 0.108544 -0.0083363199999999995
0.030433100000000001 0.14089299999999999 -0.0071813399999999996
0.034493299999999998 0.18213299999999999 -0.0083032999999999996
0.017767399999999999 0.21635599999999999 -0.0069245599999999997
-0.020494499999999999 0.18510499999999999 -0.0068867800000000003
0.023506699999999998 0.16814799999999999 -0.0070068500000000002
0.021095300000000001 0.17127300000000001 -0.0065180699999999999
0.019552300000000002 0.086558300000000005 -0.0045382599999999997
-0.023295400000000001 0.089638599999999999 -0.0049365600000000004
-0.0340291 0.0592658 -0.0043830900000000001
-0.0283682 0.088519899999999999 -0.0054447899999999997
0.027573299999999999 0.134461 -0.0051647200000000002
0.029931900000000001 0.19051999999999999 -0.0056113400000000003
-0.0072153299999999998 0.061186499999999998 -0.00446504
-0.026249499999999999 0.096280599999999994 -0.0056478400000000003
-0.026443299999999999 0.152556 -0.0049904399999999996
0.031535500000000001 0.197575 -0.0044325900000000001
0.0042986999999999999 0.079496399999999995 -0.00443525
0.0153061 0.11654100000000001 -0.0035393199999999999
-0.0082925399999999993 0.19273999999999999 -0.0032284800000000002
0.032406400000000002 0.071400500000000006 -0.00144845
0.0014574 0.092424999999999993 -0.0014191
-0.025243999999999999 0.122365 -0.0013462000000000001
-0.0294986 0.148955 -0.00189073
-0.015717700000000001 0.184835 -0.0019931200000000001
-0.0134685 0.0611844 -0.0015724999999999999
-0.0260845 0.10688599999999999 -0.00154689
0.018572399999999999 0.21237300000000001 -0.0017885500000000001
-0.031313500000000001 0.13846700000000001 -0.0010438299999999999
-0.0230513 0.112867 -0.00119684
-0.00454346 0.188308 -0.00053564800000000001
0.028582199999999999 0.079664100000000002 0.00128483
0.031391799999999997 0.059179099999999998 0.0013195500000000001
-0.041212499999999999 0.0767515 0.0011289399999999999
0.0045071099999999999 0.095305899999999999 0.00095336300000000004
0.0127768 0.115735 0.00028354500000000001
-0.031620500000000003 0.13978399999999999 0.0014929399999999999
0.024927899999999999 0.16373199999999999 0.0014392000000000001
-0.010925499999999999 0.19427800000000001 0.0013411499999999999
-0.0135435 0.061263999999999999 0.0014525
-0.0079648700000000006 0.096818500000000002 0.00214124
-0.010703600000000001 0.18304500000000001 0.0022894999999999999
-0.0321993 0.058928500000000002 0.0043739900000000003
-0.031463600000000001 0.085084400000000004 0.0046300500000000001
0.0069884300000000003 0.118797 0.0035862400000000001
0.018699299999999999 0.17036100000000001 0.0043551900000000001
-0.0105425 0.209038 0.00432191
0.020262100000000002 0.082309999999999994 0.00410751
0.010243499999999999 0.124985 0.00412693
-0.010370900000000001 0.184118 0.0032001600000000001
-0.013674199999999999 0.079590300000000003 0.0040746300000000001
0.023384200000000001 0.14562700000000001 0.0047365999999999997
-0.0043654899999999996 0.116035 0.0050528200000000004
-0.020565199999999999 0.14810599999999999 0.0048638199999999996
-0.0194246 0.080264500000000003 0.0076747500000000001
0.020707099999999999 0.0557659 0.00767842
-0.038548600000000002 0.076064900000000005 0.0077087299999999996
-0.0094098800000000007 0.095514600000000005 0.0061879999999999999
-0.0075062899999999997 0.11593299999999999 0.0061726200000000002
0.0189053 0.138214 0.0068792499999999999
-0.015321899999999999 0.16983000000000001 0.0064439299999999996
-0.0076064000000000001 0.19128800000000001 0.0077277200000000004
0.0308125 0.0532486 0.0072504600000000002
-0.010452400000000001 0.118739 0.0075839799999999997
-0.010252600000000001 0.19736300000000001 0.0079851399999999999
-0.034732100000000002 0.051721099999999999 0.010397099999999999
0.020032100000000001 0.16460900000000001 0.010959699999999999
0.026379199999999998 0.073714699999999994 0.0104761
0.0099133599999999995 0.134712 0.0097728099999999998
0.0069694500000000003 0.19464400000000001 0.0101
-0.037487800000000002 0.073414199999999999 0.010279099999999999
-0.0198376 0.140628 0.0096430700000000001
0.0043191100000000001 0.21747 0.0093451000000000003
0.013480000000000001 0.136577 0.0105405
-0.0011275 0.194439 0.0105115
0.0113572 0.17116500000000001 0.011573399999999999
-0.0226149 0.061498299999999999 0.013411599999999999
-0.0107268 0.079757499999999995 0.013454799999999999
0.00716813 0.134435 0.0132263
-0.0082356500000000006 0.17078599999999999 0.0137006
-0.025763100000000001 0.083623799999999998 0.0136054
0.0199592 0.158166 0.014204100000000001
-0.034105000000000003 0.076891299999999996 0.016064599999999998
0.0248086 0.059349800000000001 0.015890399999999999
-0.0098734300000000007 0.079857700000000004 0.016809299999999999
0.0123515 0.13972300000000001 0.015236899999999999
-0.00470324 0.079824999999999993 0.016549299999999999
0.013066400000000001 0.16431299999999999 0.0170954
-0.019754399999999998 0.058701099999999999 0.018937599999999999
-0.0075090199999999999 0.16470299999999999 0.019061100000000001
0.024966200000000001 0.062567700000000004 0.0194586
-0.034417000000000003 0.061997200000000002 0.019914299999999999
0.0071253699999999998 0.057022900000000001 0.020194899999999998
0.0053727100000000002 0.059359299999999997 0.020694000000000001
0.0164137 0.079547999999999994 0.022724100000000001
0.019973000000000001 0.071338200000000004 0.022553900000000002
-0.031426799999999998 0.061850500000000003 0.022729599999999999
-0.0073247499999999997 0.057209400000000001 0.023650399999999999
0.0133347 0.076772199999999999 0.025014000000000002
-0.0226863 0.059025300000000003 0.026026899999999999
0.010295 0.059542699999999997 0.027829199999999998
-0.0229853 0.061766000000000001 0.028343900000000002
-0.0010970800000000001 0.076401999999999998 0.029369699999999999
0.0044194100000000004 0.0704766 0.031523500000000003
-0.0071447799999999999 0.071127800000000005 0.0322577
-0.0041434999999999996 0.069574999999999998 0.033264099999999998
