ply
format ascii 1.0
element vertex 256
property float x
property float y
property float z
element face 0
property list uchar int vertex_indices
end_header
0.031708300000000002 0.0557939 -0.049835999999999998
0.0256026 0.064008899999999994 -0.046104399999999997
-0.025864600000000001 0.17339099999999999 -0.042872500000000001
0.0344946 0.071023900000000001 -0.039194399999999997
-0.036820899999999997 0.058325000000000002 -0.041062099999999997
-0.035679099999999998 0.16511100000000001 -0.039951
0.032158399999999997 0.071971599999999997 -0.039647700000000001
-0.0820655 0.065818199999999993 -0.038013999999999999
-0.082641999999999993 0.066151699999999994 -0.035534999999999997
-0.042508799999999999 0.18429200000000001 -0.037685999999999997
-0.0407198 0.15298500000000001 -0.036490000000000002
-0.047429100000000002 0.0673425 -0.036067599999999998
-0.056288999999999999 0.063235899999999998 -0.036415500000000003
-0.059061500000000003 0.078928700000000004 -0.035888900000000001
-0.018854200000000002 0.075301300000000002 -0.034023999999999999
0.030573599999999999 0.14410700000000001 -0.0352127
0.0099805999999999992 0.128244 -0.034751999999999998
0.030869799999999999 0.078886100000000001 -0.034195400000000001
0.0058732100000000002 0.136182 -0.0343971
0.0021378500000000002 0.11226800000000001 -0.033922500000000001
0.010480700000000001 0.14399899999999999 -0.033552899999999997
-0.0056216900000000004 0.120639 -0.033510400000000003
0.041911200000000003 0.096741999999999995 -0.033264200000000001
0.049862299999999998 0.13201499999999999 -0.033177100000000001
-0.078986399999999998 0.058724899999999997 -0.0306384
0.044696899999999998 0.072768200000000005 -0.031844400000000002
-0.013795999999999999 0.100579 -0.033016999999999998
0.024271999999999998 0.15113699999999999 -0.032756399999999998
-0.066961400000000004 0.075431300000000007 -0.030895700000000002
-0.010840000000000001 0.116658 -0.031925599999999998
-0.058697699999999998 0.059793199999999998 -0.030223300000000002
0.0524523 0.11230800000000001 -0.031867600000000003
-0.048509099999999999 0.17295099999999999 -0.0322939
0.0473033 0.075235300000000005 -0.030254
-0.070894799999999994 0.069782800000000006 -0.029484199999999999
0.046884500000000003 0.095979099999999998 -0.0296113
0.054732000000000003 0.13660800000000001 -0.029732000000000001
-0.013719500000000001 0.18587500000000001 -0.029824900000000001
-0.078745499999999996 0.058589200000000001 -0.026317799999999999
0.046721400000000003 0.0838473 -0.026109
0.0127925 0.117463 -0.028729299999999999
-0.028960300000000001 0.16196199999999999 -0.0275807
0.0576208 0.117628 -0.0290353
-0.0055037000000000003 0.082946300000000001 -0.027634700000000002
0.051378500000000001 0.071032999999999999 -0.026571399999999998
-0.024221400000000001 0.097858299999999995 -0.0281409
-0.052393799999999997 0.14818700000000001 -0.028294099999999999
-0.00636339 0.079687800000000003 -0.026368200000000001
-0.075656299999999996 0.068654699999999999 -0.026442799999999999
0.0280123 0.107844 -0.025954399999999999
-0.026176999999999999 0.152951 -0.0270105
-0.0431531 0.083446999999999993 -0.026898399999999999
-0.063180500000000001 0.161444 -0.026244099999999999
-0.058819900000000001 0.15282599999999999 -0.025377400000000001
-0.063121099999999999 0.16522899999999999 -0.0254933
-0.022262299999999999 0.157523 -0.025204399999999998
-0.023507 0.14463200000000001 -0.025145000000000001
-0.058610500000000003 0.059280800000000002 -0.022582999999999999
-0.063444 0.096868599999999999 -0.023253300000000001
0.062729900000000005 0.12873200000000001 -0.022280000000000001
-0.0434762 0.177902 -0.023494500000000001
-0.055305600000000003 0.12837699999999999 -0.023734999999999999
-0.047454799999999998 0.088033700000000006 -0.0223316
0.059273600000000003 0.14082900000000001 -0.022426499999999999
-0.027930799999999999 0.097349199999999997 -0.0239119
-0.0389906 0.182444 -0.023670199999999999
0.051680700000000003 0.056531199999999997 -0.021682900000000001
0.00354287 0.090871499999999994 -0.021670600000000002
-0.039606200000000001 0.116565 -0.021638899999999999
-0.057006800000000003 0.15595400000000001 -0.023069300000000001
-0.070027900000000004 0.17111899999999999 -0.021638399999999999
-0.039008899999999999 0.18938099999999999 -0.022424699999999999
0.0046565900000000004 0.092629100000000006 -0.021110799999999999
0.027798400000000001 0.111217 -0.020728
-0.024755800000000001 0.180229 -0.0211311
0.064903000000000002 0.13195399999999999 -0.020115899999999999
-0.054087499999999997 0.095774999999999999 -0.020294800000000002
0.064305299999999996 0.13669899999999999 -0.019964599999999999
-0.035486400000000001 0.193885 -0.019389
-0.02239 0.14812 -0.018676000000000002
-0.079361500000000001 0.059464500000000003 -0.018979800000000002
-0.079892199999999997 0.075266799999999995 -0.017921400000000001
-0.029760399999999999 0.099606299999999995 -0.017887
0.063590900000000006 0.116365 -0.018111499999999999
0.059952499999999999 0.14511099999999999 -0.018408999999999998
0.017834200000000001 0.15758 -0.0182591
-0.063068600000000002 0.17763599999999999 -0.018095099999999999
-0.041546899999999998 0.11151899999999999 -0.018957399999999999
-0.073547100000000004 0.17466699999999999 -0.017746999999999999
0.028731 0.11386400000000001 -0.0172158
-0.074676999999999993 0.112146 -0.016872600000000001
-0.078745200000000001 0.16390299999999999 -0.016964300000000002
-0.0053797300000000001 0.070842600000000006 -0.0143436
-0.081153900000000001 0.15945999999999999 -0.016237100000000001
0.054645100000000002 0.14777799999999999 -0.015949499999999998
-0.087202500000000002 0.16211600000000001 -0.013954299999999999
0.064696100000000006 0.064822599999999994 -0.0141049
0.059863300000000001 0.104071 -0.014145700000000001
-0.071148100000000006 0.120063 -0.014226600000000001
0.0620133 0.13883300000000001 -0.0156238
-0.075433799999999995 0.16677400000000001 -0.014649799999999999
-0.022328799999999999 0.053854300000000001 -0.014105400000000001
-0.042496100000000002 0.104077 -0.014079
0.0552268 0.14526 -0.0140024
0.054709199999999999 0.054667300000000002 -0.0138811
0.030495100000000001 0.11635 -0.0139992
0.082860000000000003 0.14454700000000001 -0.0136635
-0.0344871 0.098866599999999999 -0.0129447
-0.0039057300000000001 0.072891499999999998 -0.012677300000000001
0.039730799999999997 0.0548318 -0.0097573999999999994
0.091703800000000002 0.132193 -0.0104622
-0.087822300000000006 0.16994200000000001 -0.0104811
-0.020860799999999999 0.160554 -0.012038999999999999
-0.0047466399999999999 0.0709587 -0.0099721400000000009
-0.080716300000000005 0.108377 -0.0099915100000000003
-0.063957600000000003 0.12895100000000001 -0.010005099999999999
-0.078892900000000002 0.14763299999999999 -0.0099994000000000003
-0.010135099999999999 0.162101 -0.0100578
-0.063440399999999994 0.053602499999999997 -0.010133400000000001
-0.0071722299999999999 0.0674231 -0.0098882299999999996
0.051270999999999997 0.091483999999999996 -0.0097458700000000002
-0.019651100000000001 0.11694400000000001 -0.0094907700000000008
-0.053656299999999997 0.14036000000000001 -0.0099531299999999993
0.013742000000000001 0.15271999999999999 -0.0098398600000000006
0.078639000000000001 0.104978 -0.0091962199999999997
0.074878200000000006 0.12834100000000001 -0.0101875
0.0077787100000000003 0.10373400000000001 -0.0090095799999999997
0.047489400000000001 0.091871599999999998 -0.0088994399999999998
0.083060700000000001 0.13527500000000001 -0.0083952300000000001
-0.067014099999999993 0.054033600000000001 -0.0060479000000000002
-0.078615099999999993 0.060461300000000003 -0.0057399699999999996
0.015628400000000001 0.075586500000000001 -0.0056567299999999996
0.0048419600000000002 0.096174300000000004 -0.0069472199999999996
-0.025146000000000002 0.10276299999999999 -0.0059876900000000004
-0.021049700000000001 0.110948 -0.0068837899999999999
0.075106999999999993 0.120127 -0.0062289399999999997
-0.012321800000000001 0.12734699999999999 -0.0069239699999999998
0.090921299999999997 0.14075399999999999 -0.0071147900000000002
-0.0591268 0.14522699999999999 -0.0058516200000000001
0.039498999999999999 0.14908099999999999 -0.0060390799999999996
-0.063228099999999995 0.162527 -0.00584477
-0.033544200000000003 0.175292 -0.00708386
0.0435614 0.091673599999999994 -0.0059741899999999999
-0.082825200000000002 0.17325499999999999 -0.0067965200000000003
0.055204700000000002 0.132465 -0.0054310499999999998
0.0165633 0.066291799999999998 -0.0050102699999999998
0.040645599999999997 0.084235599999999994 -0.0048803199999999996
-0.052816700000000001 0.15934799999999999 -0.00462744
0.056275899999999997 0.120514 -0.0046669299999999997
-0.0049566999999999996 0.074663499999999994 -0.00195963
-0.080660599999999999 0.17643400000000001 -0.0041976299999999999
0.051978799999999999 0.076823799999999998 -0.0029452900000000001
0.0050818699999999996 0.108778 -0.0030222399999999998
-0.059260699999999999 0.129551 -0.00186724
0.039308099999999999 0.144507 -0.00340252
-0.091853500000000005 0.17546200000000001 -0.0037174299999999999
0.017241599999999999 0.066719700000000007 -0.0017278199999999999
0.00156492 0.096449900000000005 -0.0023649700000000001
-0.040707199999999999 0.11751200000000001 -0.00274727
-0.100149 0.14120099999999999 -0.0021114200000000001
-0.023677199999999999 0.15065400000000001 -0.0037539700000000001
-0.034039300000000002 0.18398300000000001 -0.0022005900000000001
-0.0092703899999999999 0.066587400000000005 -0.0012732799999999999
0.039486500000000001 0.100579 -0.0028525099999999999
0.013826 0.13227900000000001 -0.0026457299999999998
-0.055312600000000003 0.16098799999999999 -0.0019088600000000001
0.034880800000000003 0.136377 -0.0026479099999999998
0.039613599999999999 0.104697 -0.0023121299999999999
0.0097048700000000009 0.13209499999999999 -0.0020344500000000001
0.018853000000000002 0.082064100000000001 -0.00087671299999999999
0.0019057 0.12851000000000001 -0.00118008
-0.0434487 0.13628299999999999 -0.00048481000000000002
0.064481300000000005 0.091959899999999997 -0.00028409300000000002
-0.0514861 0.054752700000000001 0.0017764499999999999
0.073115899999999998 0.062140399999999998 0.0018078599999999999
0.0599137 0.075834700000000005 0.0011710900000000001
0.033596599999999997 0.082116499999999995 0.0010196999999999999
-0.043678599999999998 0.094960100000000006 0.0022084299999999999
0.080169599999999994 0.108417 0.0020345799999999998
-0.071853500000000001 0.117147 0.0028432499999999999
-0.079135300000000006 0.14045199999999999 0.00177769
-0.051343100000000003 0.146089 0.00191814
-0.047186600000000002 0.15773100000000001 0.00165314
-0.067568299999999998 0.17043900000000001 0.00238339
-0.035429099999999998 0.18159600000000001 0.00058064499999999997
0.0101797 0.059049600000000001 0.0025984900000000002
0.032243399999999998 0.081564800000000007 0.0031039399999999999
0.059418400000000003 0.082750000000000004 0.0027525900000000001
-0.00999098 0.100115 0.0033919000000000002
0.059415299999999997 0.053586099999999998 0.0060919700000000004
0.035826499999999997 0.0540765 0.0056026899999999996
-0.013212099999999999 0.066592399999999996 0.0052909200000000002
0.043501499999999999 0.077739199999999994 0.0048983400000000002
-0.039488700000000002 0.092156600000000005 0.0058861900000000003
-0.048953200000000002 0.10609499999999999 0.0044200000000000003
-0.092736200000000005 0.14307500000000001 0.0058100900000000004
-0.050968300000000001 0.15595200000000001 0.0044093300000000004
-0.058676499999999999 0.17158799999999999 0.00386448
-0.0431683 0.093165200000000004 0.0067669799999999997
-0.010571199999999999 0.083769800000000005 0.0061398099999999999
-0.049606400000000002 0.099793800000000002 0.0071733099999999996
-0.077994999999999995 0.15019099999999999 0.0067684700000000004
-0.0136209 0.083521899999999996 0.010817500000000001
0.0099320099999999998 0.059543899999999997 0.0103445
-0.081217399999999995 0.096643900000000005 0.0079672300000000005
-0.059277299999999998 0.16217500000000001 0.0090459100000000008
0.010035799999999999 0.065373700000000007 0.01008
0.079713300000000001 0.10052700000000001 0.01064
-0.063825400000000004 0.14404 0.0108065
-0.047200499999999999 0.055707 0.0105072
0.036313199999999997 0.083915900000000002 0.0092698399999999997
-0.093661800000000003 0.15556400000000001 0.0099881799999999993
-0.085811600000000002 0.175452 0.0096536699999999996
-0.076166600000000001 0.067183000000000007 0.0114056
-0.063543699999999995 0.142432 0.010834399999999999
0.040950100000000003 0.079144500000000007 0.0114883
0.039710700000000002 0.083528199999999997 0.0135645
0.055058799999999998 0.053825999999999999 0.0141756
0.0059023499999999998 0.059053599999999998 0.0142501
-0.0198756 0.072861599999999999 0.014630900000000001
-0.014537400000000001 0.082095100000000004 0.012558400000000001
-0.047000199999999999 0.093014299999999994 0.0141209
0.0391636 0.112357 0.0145795
-0.10015300000000001 0.156331 0.012571799999999999
-0.018053900000000001 0.053001100000000002 0.013758299999999999
-0.075308299999999995 0.087674699999999994 0.013958699999999999
0.0432629 0.096435199999999999 0.0145284
0.075046699999999994 0.096407999999999994 0.0155833
-0.0116422 0.056057099999999999 0.017796300000000001
0.0249617 0.064078499999999997 0.0186524
0.079371800000000006 0.0750252 0.018108900000000001
-0.059295 0.092005199999999995 0.0175219
0.026549900000000001 0.055655000000000003 0.018564500000000001
0.045872900000000001 0.092896800000000002 0.0178227
0.066170499999999993 0.056967700000000003 0.017064800000000001
-0.013808900000000001 0.071149299999999999 0.0195421
-0.0387493 0.084531099999999998 0.0194591
0.035073 0.100133 0.021638399999999999
-0.0341657 0.059886000000000002 0.0217754
-0.0138464 0.063482899999999995 0.022394000000000001
0.056410700000000001 0.077791600000000002 0.021337200000000001
0.048492199999999999 0.096253599999999995 0.021492899999999999
-0.030463199999999999 0.070982500000000004 0.021867500000000002
-0.048537499999999997 0.056525300000000001 0.022817400000000002
-0.035371600000000003 0.062322700000000002 0.023599700000000001
0.051373000000000002 0.063118099999999996 0.023733899999999999
0.0550514 0.0621313 0.024109700000000001
0.071757799999999997 0.075829400000000005 0.024198600000000001
0.0396011 0.10323300000000001 0.025563099999999998
0.056101999999999999 0.070066400000000001 0.024822799999999999
-0.030714200000000001 0.063539999999999999 0.0258087
-0.0504871 0.078013299999999994 0.028611999999999999
0.038954900000000001 0.091450100000000006 0.030166200000000001
-0.0551935 0.075236499999999998 0.035227300000000003
-0.062222 0.073913099999999995 0.035490899999999999
-0.062671599999999994 0.072114200000000003 0.0408262
