ply
format ascii 1.0
element vertex 1024
property float x
property float y
property float z
element face 0
property list uchar int vertex_indices
end_header
0.031708300000000002 0.0557939 -0.049835999999999998
0.033879300000000001 0.056718600000000001 -0.049657199999999999
0.035992700000000002 0.062390500000000002 -0.049326700000000001
0.031130700000000001 0.063551499999999997 -0.045952399999999997
0.0256026 0.064008899999999994 -0.046104399999999997
0.0224286 0.063570799999999997 -0.043956299999999997
0.035710899999999997 0.064954700000000004 -0.0440715
0.030431300000000001 0.071068699999999999 -0.042857199999999998
-0.025864600000000001 0.17339099999999999 -0.042872500000000001
-0.024641799999999998 0.17555799999999999 -0.042550999999999999
0.0268889 0.075329099999999996 -0.041613200000000003
0.0349866 0.0623492 -0.038676799999999997
0.0344946 0.071023900000000001 -0.039194399999999997
-0.030059800000000001 0.15734999999999999 -0.039798
-0.0259361 0.16620599999999999 -0.038401400000000002
-0.034505300000000003 0.053629599999999999 -0.039933099999999999
-0.0335996 0.059442700000000001 -0.041114600000000001
-0.0306722 0.15876499999999999 -0.041135199999999997
-0.0387891 0.056443300000000002 -0.0408542
-0.026780999999999999 0.060259800000000002 -0.040836799999999999
-0.035679099999999998 0.16511100000000001 -0.039951
-0.026193500000000002 0.067678600000000005 -0.039871900000000002
-0.027580299999999999 0.056316100000000001 -0.039331100000000001
-0.079446799999999998 0.063268400000000002 -0.039414400000000002
0.032158399999999997 0.071971599999999997 -0.039647700000000001
-0.030320699999999999 0.070930099999999996 -0.0383656
-0.034628699999999998 0.161996 -0.038918899999999999
-0.043367500000000003 0.0632688 -0.038394900000000003
-0.047481500000000003 0.063749 -0.037889600000000002
-0.033452299999999997 0.0699544 -0.037982599999999998
-0.031236 0.052895900000000003 -0.035685300000000003
-0.024234800000000001 0.059995300000000001 -0.036985700000000003
-0.082641999999999993 0.066151699999999994 -0.035534999999999997
-0.034812799999999998 0.070780999999999997 -0.034742299999999997
0.025586500000000002 0.076431200000000005 -0.035506799999999998
-0.0434388 0.16134399999999999 -0.035689899999999997
-0.043155699999999998 0.18285199999999999 -0.037531799999999997
-0.086065799999999998 0.060492799999999999 -0.036899500000000002
0.034796300000000002 0.064189200000000002 -0.035638400000000001
-0.024420500000000001 0.070565199999999995 -0.036895799999999999
-0.038267900000000001 0.15295 -0.037115099999999998
-0.042173000000000002 0.17155000000000001 -0.037607399999999999
-0.039081299999999999 0.052936299999999999 -0.035506200000000002
-0.023538799999999999 0.0603647 -0.0344292
-0.047429100000000002 0.0673425 -0.036067599999999998
0.042919499999999999 0.072702100000000006 -0.035044400000000003
-0.038731500000000002 0.14539199999999999 -0.034479099999999999
-0.040417500000000002 0.16885500000000001 -0.0363355
-0.055099000000000002 0.058897999999999999 -0.035029499999999998
-0.042784099999999999 0.068433300000000002 -0.036046500000000002
-0.0592057 0.063322400000000001 -0.035417999999999998
-0.051529699999999998 0.071004399999999995 -0.035557699999999998
-0.059061500000000003 0.078928700000000004 -0.035888900000000001
-0.021698700000000001 0.082991700000000002 -0.035337199999999999
-0.042472000000000003 0.17765400000000001 -0.034527500000000003
-0.046813300000000002 0.165769 -0.0347359
-0.018849000000000001 0.071487300000000004 -0.033879899999999998
-0.055098899999999999 0.083724400000000004 -0.0342318
0.0136604 0.13627300000000001 -0.035311099999999998
0.0179093 0.14028399999999999 -0.0353534
0.026262400000000002 0.14360300000000001 -0.035457700000000002
-0.029699699999999999 0.16630900000000001 -0.033964800000000003
-0.059046000000000001 0.071416800000000003 -0.033509499999999998
-0.063356700000000002 0.087726600000000002 -0.033833000000000002
0.00588567 0.128439 -0.0349719
0.0181903 0.131856 -0.034076299999999997
0.0308498 0.13573299999999999 -0.034151800000000003
0.026635200000000001 0.14845900000000001 -0.0342166
-0.063303999999999999 0.075733400000000006 -0.033607999999999999
0.025946400000000001 0.087439000000000003 -0.034319000000000002
0.030199699999999999 0.096727800000000003 -0.0339876
0.0020845099999999999 0.120353 -0.0346022
0.0018245799999999999 0.13250200000000001 -0.034004
0.018076999999999999 0.148313 -0.033697400000000002
0.030737199999999999 0.083059499999999994 -0.034389900000000001
0.0395444 0.104709 -0.034354200000000001
-0.0060153999999999997 0.112659 -0.034011899999999998
0.042680000000000003 0.12045699999999999 -0.033977800000000002
0.0103988 0.124361 -0.033945099999999999
0.043513799999999998 0.13222100000000001 -0.034225199999999997
0.0062073199999999997 0.14028399999999999 -0.033493099999999998
-0.0659661 0.079996200000000003 -0.033576399999999999
-0.0098292099999999997 0.104298 -0.033597000000000002
0.0013667600000000001 0.10885599999999999 -0.033478800000000003
0.043031100000000003 0.116498 -0.033904299999999998
0.034846500000000002 0.13263 -0.0334046
0.049146299999999997 0.066392999999999994 -0.033411700000000003
0.0227522 0.083182500000000006 -0.033409800000000003
0.027432100000000001 0.096041000000000001 -0.033214899999999999
0.045643999999999997 0.104418 -0.033396299999999997
0.050427 0.11701 -0.033285000000000002
0.039607799999999999 0.12504000000000001 -0.033257299999999997
-0.00131642 0.13173000000000001 -0.033287499999999998
0.042923299999999998 0.14360500000000001 -0.033151899999999998
-0.029330100000000001 0.15245500000000001 -0.0312366
-0.031732099999999999 0.052946199999999999 -0.0317857
-0.055330999999999998 0.058439600000000001 -0.0301201
-0.071894200000000005 0.0606989 -0.0307668
0.046934900000000002 0.062100200000000001 -0.031118099999999999
-0.019704200000000002 0.066705299999999995 -0.031070899999999999
0.047426900000000001 0.071206800000000001 -0.030302699999999998
-0.067810099999999998 0.078594999999999998 -0.031773299999999997
-0.0544158 0.085525799999999999 -0.032331800000000001
-0.062890399999999999 0.091536199999999998 -0.030926700000000001
-0.0098975299999999999 0.095969700000000005 -0.032986300000000003
-0.0130753 0.10470699999999999 -0.033055899999999999
0.038558000000000002 0.120461 -0.032394600000000003
0.046444399999999997 0.14022000000000001 -0.033162299999999999
-0.0445213 0.1474 -0.032004299999999999
0.0305373 0.153173 -0.030698300000000001
-0.049153200000000001 0.16955500000000001 -0.032890299999999997
-0.051015100000000001 0.17715800000000001 -0.030588899999999999
-0.064144900000000005 0.074173600000000006 -0.032464800000000002
-0.013681 0.091691400000000006 -0.032507500000000002
-0.0147698 0.104867 -0.032459500000000002
-0.0131273 0.107708 -0.032766400000000001
-0.010890800000000001 0.112402 -0.032643699999999998
-0.0102687 0.120631 -0.031443100000000002
0.0516357 0.13603000000000001 -0.031868500000000001
-0.047008800000000003 0.14890300000000001 -0.031232099999999999
-0.039528399999999998 0.053115200000000001 -0.030754299999999998
-0.0171685 0.075060100000000005 -0.031253499999999997
-0.071039199999999997 0.087379999999999999 -0.030578399999999999
-0.018722900000000001 0.091844700000000001 -0.032116899999999997
-0.018076600000000002 0.096280900000000003 -0.031986899999999999
0.054940299999999997 0.120431 -0.031440099999999999
0.034802 0.12804499999999999 -0.031292399999999998
0.0056978799999999998 0.144813 -0.031140600000000001
-0.030365300000000001 0.14866399999999999 -0.030346499999999998
0.0225788 0.0672426 -0.030351300000000001
-0.018238000000000001 0.100606 -0.0312073
0.0134815 0.120729 -0.030353000000000002
0.017251200000000001 0.15082000000000001 -0.031827000000000001
0.043376199999999997 0.092317999999999997 -0.030891399999999999
-0.0471257 0.14440600000000001 -0.030413800000000001
-0.0059322799999999998 0.19295499999999999 -0.030628699999999998
0.037953000000000001 0.065371799999999994 -0.0305723
0.017981299999999999 0.0749248 -0.030129099999999999
0.046286500000000001 0.083246399999999998 -0.02997
-0.0057155599999999997 0.087685100000000002 -0.0300396
-0.0219455 0.096148399999999995 -0.0302195
0.031449100000000001 0.108101 -0.0300717
0.034959499999999998 0.116344 -0.0298666
0.0027406000000000002 0.14463500000000001 -0.029629099999999998
-0.040866899999999998 0.073466100000000006 -0.0304449
-0.0089236200000000002 0.19215299999999999 -0.029616699999999999
0.0184367 0.071414199999999997 -0.029670800000000001
-0.021089199999999999 0.10043000000000001 -0.029540500000000001
-0.0313359 0.14444199999999999 -0.029519699999999999
-0.00386996 0.19140699999999999 -0.030250800000000001
-0.051856300000000001 0.057303300000000001 -0.029297799999999999
0.057904600000000001 0.120881 -0.029243600000000002
-0.031455999999999998 0.055886400000000003 -0.026887500000000002
-0.067882200000000004 0.061833199999999998 -0.0273025
-0.018154099999999999 0.066750599999999993 -0.027002600000000002
-0.068512299999999998 0.073916899999999994 -0.026516600000000001
0.016668800000000001 0.084142999999999996 -0.028511100000000001
-0.054787299999999997 0.088866299999999995 -0.026798499999999999
-0.024692599999999999 0.095185199999999998 -0.029048899999999999
0.027914100000000001 0.10445699999999999 -0.029260600000000001
0.032321099999999998 0.111683 -0.028947199999999999
0.024431600000000001 0.12750300000000001 -0.0285101
-0.039066400000000001 0.13642699999999999 -0.029188599999999999
-0.050396099999999999 0.14847299999999999 -0.029262900000000001
-0.028254100000000001 0.15309800000000001 -0.028827999999999999
-0.029979599999999999 0.165245 -0.026851799999999999
-0.0221417 0.062929399999999996 -0.0270665
-0.0275239 0.092735600000000001 -0.028074399999999999
0.056281400000000002 0.109043 -0.0273411
-0.0061823199999999998 0.13680400000000001 -0.026951900000000001
0.039687300000000002 0.153865 -0.027015600000000001
-0.051256999999999997 0.057995699999999997 -0.0264532
-0.078645599999999996 0.067958500000000005 -0.026008400000000001
-0.019415700000000001 0.109057 -0.027322900000000001
-0.0094035200000000003 0.13193099999999999 -0.026337599999999999
0.051083200000000002 0.058349600000000001 -0.026559300000000001
0.021579500000000001 0.063186599999999996 -0.0274703
-0.0130464 0.074393000000000001 -0.0282039
-0.038583199999999998 0.083872799999999997 -0.027338000000000001
-0.073381100000000005 0.088627999999999998 -0.0280094
-0.072097499999999995 0.092468900000000007 -0.0267627
-0.020046600000000001 0.105822 -0.028469299999999999
-0.0159445 0.116883 -0.0272617
-0.030339999999999999 0.136214 -0.027483799999999999
-0.028756299999999999 0.14416899999999999 -0.028252800000000002
0.0091871799999999997 0.15071000000000001 -0.028234599999999999
0.035398300000000001 0.15442900000000001 -0.028098100000000001
-0.017957500000000001 0.18266399999999999 -0.0267797
-0.0070787100000000002 0.19066900000000001 -0.027891300000000001
0.0121163 0.11551400000000001 -0.027999799999999998
-0.087247900000000003 0.059778699999999997 -0.026604300000000001
-0.059161999999999999 0.060831200000000002 -0.026982800000000001
0.035107199999999998 0.0623195 -0.027299199999999999
-0.071248699999999998 0.069576100000000002 -0.0271735
-0.073256600000000005 0.083525000000000002 -0.027833
0.00185461 0.092155000000000001 -0.025755199999999999
0.0499654 0.096236199999999994 -0.0257509
0.033277800000000003 0.12044000000000001 -0.027427699999999999
0.060134100000000003 0.12402199999999999 -0.026605500000000001
-0.0469872 0.14058699999999999 -0.027035199999999999
0.050523600000000002 0.14849799999999999 -0.0255505
0.021776199999999999 0.15610099999999999 -0.026024700000000001
-0.035509100000000002 0.172817 -0.025638399999999999
-0.020800099999999998 0.18792700000000001 -0.026502299999999999
0.019145100000000002 0.063438300000000003 -0.025746100000000001
-0.074155100000000002 0.083292599999999994 -0.025850700000000001
0.031840800000000002 0.115732 -0.025672899999999998
-0.030731000000000001 0.132604 -0.025902600000000001
-0.0017330399999999999 0.144043 -0.025741300000000002
-0.026088900000000002 0.185945 -0.0258164
-0.047249199999999998 0.12438200000000001 -0.026457700000000001
0.034818399999999999 0.059927000000000001 -0.0257567
-0.039303200000000003 0.12411800000000001 -0.026152100000000001
-0.063075300000000001 0.1701 -0.025553900000000001
-0.02334 0.059850899999999999 -0.025150599999999999
-0.033028299999999997 0.090486499999999997 -0.025203099999999999
-0.026841799999999999 0.13658799999999999 -0.0252023
-0.029519500000000001 0.18476500000000001 -0.0254454
0.00084256299999999995 0.088854000000000002 -0.024920299999999999
-0.049990199999999999 0.136658 -0.025151099999999999
-0.022332000000000001 0.15279000000000001 -0.025423600000000001
-0.030685500000000001 0.178809 -0.024896399999999999
0.0138747 0.083062899999999995 -0.022308100000000001
-0.032213100000000001 0.092441099999999998 -0.023425700000000001
-0.0128389 0.127386 -0.024616800000000001
-0.020372500000000002 0.15310099999999999 -0.025072199999999999
-0.025714000000000001 0.17913399999999999 -0.0245791
-0.0309007 0.0543125 -0.022332000000000001
-0.083610299999999999 0.0592887 -0.022383400000000001
0.043087899999999998 0.059225399999999997 -0.022367999999999999
-0.0133943 0.066661799999999993 -0.023038800000000002
-0.071431900000000007 0.075323899999999999 -0.0230069
-0.034811599999999998 0.091033900000000001 -0.022402700000000001
0.018561500000000002 0.096114500000000005 -0.022077099999999999
0.053718299999999997 0.101151 -0.024690199999999999
-0.019079700000000002 0.11643100000000001 -0.022535400000000001
0.062615199999999996 0.124755 -0.022507900000000001
-0.0301026 0.128048 -0.0226658
-0.059664599999999998 0.14100399999999999 -0.022768300000000002
0.0102118 0.15479999999999999 -0.023644100000000001
-0.022621700000000002 0.16123000000000001 -0.025075900000000002
-0.018994400000000002 0.18243100000000001 -0.023354699999999999
0.030702 0.055076 -0.022778199999999998
-0.038680199999999998 0.088237999999999997 -0.022672899999999999
0.029189799999999998 0.112747 -0.0226179
-0.029305399999999999 0.131635 -0.0241683
-0.022206199999999999 0.161325 -0.022577099999999999
0.025027500000000001 0.057154700000000003 -0.024087299999999999
0.051694200000000003 0.0754721 -0.022000499999999999
-0.055082399999999997 0.091192999999999996 -0.022615099999999999
0.056020599999999997 0.10360999999999999 -0.022382800000000001
-0.0561247 0.12059 -0.0241058
0.062490900000000002 0.13225899999999999 -0.022122300000000001
0.055572499999999997 0.14536099999999999 -0.0231846
-0.067274500000000001 0.16587499999999999 -0.02265
-0.031091500000000001 0.176982 -0.022365599999999999
-0.054990700000000003 0.058306799999999999 -0.023376000000000001
-0.051327200000000003 0.112121 -0.023844600000000001
0.031073099999999999 0.12072099999999999 -0.0221348
-0.054967000000000002 0.14251 -0.023799299999999999
0.030740199999999999 0.158858 -0.0232798
-0.031134800000000001 0.18577199999999999 -0.0222376
-0.055098500000000002 0.112467 -0.023692999999999999
-0.059154699999999998 0.156719 -0.021743499999999999
-0.0270209 0.17868700000000001 -0.021897300000000001
0.063125100000000003 0.055359800000000001 -0.0213233
-0.018886 0.059473999999999999 -0.021512799999999999
0.015718300000000001 0.064025499999999999 -0.021658500000000001
-0.075189800000000001 0.079066600000000001 -0.0218642
-0.075111999999999998 0.092428200000000002 -0.0222013
0.054175899999999999 0.10021099999999999 -0.021652299999999999
-0.050781899999999998 0.10825600000000001 -0.022292900000000001
-0.0201695 0.113776 -0.022721399999999999
0.0165931 0.117864 -0.022794399999999999
0.0227996 0.123247 -0.0217696
-0.00226939 0.14878 -0.022365300000000001
-0.021497100000000002 0.15278700000000001 -0.021563800000000001
-0.021874899999999999 0.156582 -0.0218298
-0.071081000000000005 0.16112599999999999 -0.021623799999999999
-0.018450600000000001 0.185472 -0.022236300000000001
0.061718599999999998 0.11681900000000001 -0.0215833
-0.070027900000000004 0.17111899999999999 -0.021638399999999999
-0.034687200000000001 0.19634299999999999 -0.021642999999999999
-0.063503699999999996 0.108277 -0.0224186
-0.066717799999999994 0.14035400000000001 -0.021311299999999998
-0.036103999999999997 0.190248 -0.021203799999999998
-0.063036999999999996 0.059906800000000003 -0.021440399999999998
-0.067533800000000005 0.10498 -0.021915
0.062041499999999999 0.136015 -0.0216306
-0.055642999999999998 0.095744399999999993 -0.0212275
-0.023704800000000002 0.130166 -0.0214664
0.061819399999999997 0.062057399999999999 -0.020629999999999999
-0.032800299999999998 0.093970700000000004 -0.020798899999999999
0.027798400000000001 0.111217 -0.020728
-0.0133486 0.13589200000000001 -0.020704400000000001
0.0542592 0.15126300000000001 -0.021145899999999999
-0.074242500000000003 0.16026399999999999 -0.0207741
-0.045684299999999997 0.180783 -0.020943799999999999
-0.0502318 0.103368 -0.019851199999999999
-0.024633499999999999 0.16303799999999999 -0.020602200000000001
-0.029367799999999999 0.098226900000000006 -0.020772100000000002
0.064903000000000002 0.13195399999999999 -0.020115899999999999
0.031534100000000002 0.053199900000000001 -0.0202863
0.043022299999999999 0.055164199999999997 -0.018123500000000001
0.047011400000000002 0.079340800000000003 -0.018274800000000001
-0.075960399999999997 0.100176 -0.019879600000000001
0.025714999999999998 0.108241 -0.018502600000000001
-0.068011600000000005 0.116964 -0.019828399999999999
-0.063857300000000006 0.124959 -0.0188329
-0.012641400000000001 0.13928099999999999 -0.019461300000000001
-0.022612799999999999 0.144065 -0.018594800000000002
0.051427100000000003 0.15317600000000001 -0.018065700000000001
0.0177976 0.15954199999999999 -0.019988100000000002
-0.035486400000000001 0.193885 -0.019389
0.0051174599999999999 0.091667600000000002 -0.018086999999999999
0.071151099999999995 0.12449 -0.0197045
0.070889400000000005 0.13248599999999999 -0.0197524
-0.024300499999999999 0.182618 -0.019940200000000002
-0.025828799999999999 0.053420500000000003 -0.018052200000000001
0.054745500000000002 0.054734900000000003 -0.017688800000000001
0.018208499999999999 0.058751200000000003 -0.018179899999999999
-0.079361500000000001 0.059464500000000003 -0.018979800000000002
-0.0133866 0.062673900000000005 -0.0181242
-0.0094970300000000001 0.067206100000000005 -0.018201100000000001
0.057719699999999999 0.069609900000000002 -0.017964999999999998
-0.079892199999999997 0.075266799999999995 -0.017921400000000001
0.0030770099999999998 0.087654099999999999 -0.018134999999999998
0.015169500000000001 0.0912549 -0.017980300000000001
-0.051020000000000003 0.095902500000000002 -0.018283400000000002
0.020132400000000002 0.099720600000000006 -0.0175113
0.056908899999999998 0.103203 -0.018230699999999999
-0.025755500000000001 0.108109 -0.0177713
-0.039274799999999999 0.11246299999999999 -0.017866799999999999
0.063590900000000006 0.116365 -0.018111499999999999
-0.0192207 0.121515 -0.019559
-0.026089299999999999 0.12820500000000001 -0.0179209
0.063002799999999998 0.14091699999999999 -0.0181931
0.059952499999999999 0.14511099999999999 -0.018408999999999998
-0.066674800000000006 0.151757 -0.018009600000000001
-0.0590882 0.15404799999999999 -0.017782099999999999
0.0067077300000000003 0.15706999999999999 -0.019309799999999998
0.017834200000000001 0.15758 -0.0182591
0.0153191 0.16030700000000001 -0.019781799999999999
0.0344934 0.160608 -0.019206500000000001
-0.0278441 0.16911200000000001 -0.019325499999999999
-0.063068600000000002 0.17763599999999999 -0.018095099999999999
-0.043833700000000003 0.185809 -0.017626200000000002
-0.042017499999999999 0.18959000000000001 -0.018196899999999998
0.0128056 0.082799999999999999 -0.0178018
-0.041546899999999998 0.11151899999999999 -0.018957399999999999
0.067173099999999999 0.12848799999999999 -0.0187498
-0.023343800000000001 0.13266700000000001 -0.019657399999999998
-0.063353999999999994 0.144098 -0.017877299999999999
-0.073547100000000004 0.17466699999999999 -0.017746999999999999
0.071070099999999997 0.12044199999999999 -0.018698599999999999
0.046992800000000001 0.056594600000000002 -0.0172806
-0.070563000000000001 0.17605599999999999 -0.017249500000000001
0.028731 0.11386400000000001 -0.0172158
0.049405499999999998 0.057306299999999998 -0.0176475
0.048461400000000002 0.076616400000000001 -0.016499199999999999
-0.043483300000000003 0.090101600000000004 -0.017013500000000001
-0.044519499999999997 0.105572 -0.0166812
0.066988000000000006 0.116567 -0.016773300000000001
-0.0069179899999999997 0.14212900000000001 -0.016734800000000001
0.047566999999999998 0.154228 -0.017167000000000002
-0.078745200000000001 0.16390299999999999 -0.016964300000000002
-0.066080299999999995 0.056543200000000002 -0.0165592
-0.024597500000000001 0.116784 -0.016809500000000002
-0.074063799999999999 0.14434900000000001 -0.016715799999999999
-0.080902600000000005 0.070816199999999996 -0.0155871
-0.081947300000000001 0.094951999999999995 -0.016420000000000001
0.076463199999999995 0.12006699999999999 -0.0149018
-0.071555800000000003 0.141516 -0.014636
-0.067896600000000001 0.15840000000000001 -0.016067499999999998
0.067888299999999999 0.059440699999999999 -0.014926200000000001
0.076068499999999997 0.11654299999999999 -0.014386299999999999
0.068693799999999999 0.138906 -0.014668799999999999
0.054645100000000002 0.14777799999999999 -0.015949499999999998
0.014251 0.087487200000000001 -0.014136900000000001
-0.031329099999999999 0.12067600000000001 -0.0150823
-0.055293599999999998 0.14396100000000001 -0.013906
0.043181400000000002 0.15332399999999999 -0.0144581
0.043575299999999997 0.053445600000000003 -0.0158196
0.067602200000000001 0.054313100000000003 -0.014249400000000001
0.017360400000000002 0.058553399999999999 -0.014446499999999999
0.014402699999999999 0.063567600000000002 -0.013906999999999999
0.0033516399999999999 0.087151599999999996 -0.013787000000000001
-0.043548299999999998 0.092055499999999998 -0.0146569
-0.034678399999999998 0.096287999999999999 -0.0148126
-0.031529799999999997 0.101156 -0.014437200000000001
-0.0278301 0.10567 -0.015986299999999998
-0.038677400000000001 0.108636 -0.0138867
-0.025396100000000001 0.116243 -0.014843500000000001
0.0143648 0.11666700000000001 -0.014190100000000001
0.021882100000000002 0.12467 -0.014149200000000001
-0.063554399999999997 0.12856500000000001 -0.0136355
-0.027573 0.13209000000000001 -0.0139782
0.0620133 0.13883300000000001 -0.0156238
0.00209655 0.14860400000000001 -0.0143848
-0.063142500000000004 0.15235799999999999 -0.013900600000000001
0.031150600000000001 0.15623400000000001 -0.0140191
-0.083123100000000005 0.16545599999999999 -0.014263400000000001
-0.072945700000000002 0.173957 -0.014009799999999999
-0.043228500000000003 0.18168100000000001 -0.013516
0.030717299999999999 0.053460399999999998 -0.013592
-0.051146799999999999 0.053460399999999998 -0.0142113
0.0133808 0.066821000000000005 -0.0135354
0.0120678 0.075229199999999996 -0.0139478
0.0013997199999999999 0.083364300000000002 -0.0138382
0.058361200000000002 0.10123699999999999 -0.013761199999999999
0.029401699999999999 0.11357399999999999 -0.0134203
-0.0147601 0.12890399999999999 -0.013506300000000001
-0.075509099999999996 0.14027100000000001 -0.0138443
-0.023833099999999999 0.145147 -0.013875500000000001
0.018532699999999999 0.15584500000000001 -0.014376699999999999
-0.082001000000000004 0.15886 -0.0136623
-0.051303399999999999 0.18090200000000001 -0.0138215
-0.034433699999999998 0.055256899999999998 -0.013267599999999999
0.051387500000000003 0.055356200000000001 -0.0134112
-0.0068823699999999996 0.068471400000000002 -0.013438200000000001
0.046488300000000003 0.078974900000000001 -0.013724500000000001
-0.035919199999999998 0.112627 -0.013828500000000001
-0.011861 0.133468 -0.013614100000000001
-0.0047762799999999999 0.143012 -0.014866300000000001
-0.056716299999999997 0.15825900000000001 -0.013680899999999999
-0.065541799999999997 0.126888 -0.0135484
0.000161204 0.080332500000000001 -0.013449900000000001
-0.0615963 0.13076499999999999 -0.013465400000000001
0.087349499999999997 0.129417 -0.0131063
0.046277100000000002 0.052946300000000002 -0.0128664
-0.033401699999999999 0.12008000000000001 -0.0129815
0.036446100000000002 0.155057 -0.012670600000000001
-0.043729400000000002 0.096399799999999994 -0.0130507
-0.070033100000000001 0.056799500000000003 -0.0125933
0.064078999999999997 0.121673 -0.0124937
0.0789242 0.14716000000000001 -0.0126173
-0.024481800000000001 0.10960300000000001 -0.0123295
0.0469387 0.053269299999999999 -0.010014
0.014905399999999999 0.083071199999999998 -0.0104422
-0.0267447 0.104065 -0.0107765
0.0635931 0.119939 -0.0114089
0.067685599999999999 0.12786900000000001 -0.011376600000000001
-0.0069888499999999996 0.13736300000000001 -0.0100474
-0.063631800000000002 0.14428299999999999 -0.0104879
0.0031377499999999999 0.14777999999999999 -0.0111506
-0.022123799999999999 0.16240399999999999 -0.0125486
0.063877000000000003 0.053840300000000001 -0.010415199999999999
-0.084052799999999997 0.100538 -0.010219199999999999
-0.0220062 0.112347 -0.010262
0.093121200000000001 0.136846 -0.0098891499999999993
-0.018040500000000001 0.16597500000000001 -0.010999
-0.0551566 0.054094400000000001 -0.0099452099999999995
-0.038969299999999998 0.056569700000000001 -0.0103607
-0.079702999999999996 0.063119400000000006 -0.0099935100000000006
0.013661899999999999 0.075169700000000006 -0.0098729200000000003
0.0075440000000000004 0.100729 -0.010361799999999999
0.075073399999999998 0.103794 -0.0107438
0.062945299999999996 0.108144 -0.0100149
-0.037928299999999998 0.115935 -0.0096091100000000006
-0.073968500000000006 0.119035 -0.010099199999999999
0.075126399999999996 0.12445000000000001 -0.0097144499999999995
-0.0306945 0.128552 -0.0099041100000000007
0.068907200000000002 0.13117200000000001 -0.011683900000000001
0.095112199999999994 0.13663600000000001 -0.010016300000000001
-0.083460699999999999 0.14006099999999999 -0.0102767
-0.00093571099999999999 0.14381099999999999 -0.0103406
0.0474633 0.149314 -0.010188600000000001
0.017879800000000001 0.153892 -0.0100255
-0.020771499999999998 0.15798300000000001 -0.0116983
-0.0137295 0.16081100000000001 -0.010920600000000001
-0.021952900000000001 0.169512 -0.0115709
-0.063271900000000006 0.18031900000000001 -0.00995827
0.025487900000000001 0.052882499999999999 -0.0096810200000000003
-0.030492999999999999 0.054586900000000001 -0.0099722700000000001
-0.0219496 0.053682599999999997 -0.0098226200000000007
0.0195233 0.0562859 -0.010023499999999999
0.070479299999999995 0.063013100000000002 -0.0097089199999999994
0.063378400000000001 0.067310599999999998 -0.0098024400000000008
-0.0036625 0.072980600000000007 -0.0099963399999999994
-0.00061303799999999999 0.078882499999999994 -0.0098911299999999997
-0.086463600000000002 0.083307099999999995 -0.0098418900000000007
0.0041675100000000001 0.089582400000000006 -0.0108734
0.022184599999999999 0.096698800000000001 -0.0095139700000000001
-0.04163 0.100151 -0.010104800000000001
0.026076599999999998 0.10434400000000001 -0.0099735399999999995
0.0780975 0.116786 -0.0099815300000000006
0.016345999999999999 0.12151099999999999 -0.0110884
-0.067757700000000004 0.12527199999999999 -0.0103286
-0.065818500000000002 0.12751999999999999 -0.0099334100000000002
-0.0051417199999999998 0.139904 -0.0103295
-0.052777999999999999 0.14319799999999999 -0.010006599999999999
-0.067042000000000004 0.143512 -0.0098714700000000002
0.071879100000000001 0.147839 -0.0099841200000000008
-0.017414599999999999 0.153059 -0.0106669
-0.071437700000000007 0.162074 -0.0099842400000000001
-0.075135999999999994 0.169103 -0.0100068
-0.010670300000000001 0.173897 -0.0101294
-0.0446755 0.17994599999999999 -0.0111538
-0.0294431 0.131717 -0.0095453399999999994
0.059954399999999998 0.116146 -0.0095392500000000009
-0.087215100000000004 0.14379400000000001 -0.0093251900000000006
-0.026432799999999999 0.173404 -0.0095237199999999994
0.058640100000000001 0.10870100000000001 -0.0099108600000000005
0.066820400000000002 0.070766700000000002 -0.0087344399999999996
0.020671599999999998 0.093525800000000006 -0.0089017499999999999
0.071536199999999994 0.100962 -0.0086121099999999992
-0.041669699999999997 0.108682 -0.0092132900000000007
0.030273700000000001 0.12795300000000001 -0.0086496699999999999
-0.052803799999999998 0.14147399999999999 -0.0090194699999999999
0.0094433499999999997 0.14987 -0.0087400599999999991
0.070938399999999999 0.12576499999999999 -0.0088070000000000006
0.011115 0.115443 -0.0084510399999999999
-0.086011500000000005 0.14747299999999999 -0.0083642400000000002
0.015226999999999999 0.12275 -0.0085730500000000005
0.059212300000000002 0.068537500000000001 -0.0072669900000000001
-0.0223077 0.148421 -0.0053164099999999997
0.0219367 0.054472899999999998 -0.0059593900000000002
-0.059216600000000001 0.053697799999999997 -0.0061148000000000001
0.059325999999999997 0.0542126 -0.0059755099999999998
0.031427900000000002 0.054993800000000002 -0.0061042800000000001
0.034945299999999999 0.055622600000000001 -0.0055856400000000002
0.074181999999999998 0.059098100000000001 -0.0058891799999999999
-0.0100921 0.063308299999999998 -0.0063699799999999999
-0.083186599999999999 0.066952300000000006 -0.0057505000000000004
0.055440499999999997 0.072259599999999993 -0.00604822
0.051327400000000002 0.075593900000000006 -0.0060978300000000003
0.0478547 0.079675599999999999 -0.0058807800000000004
0.018373 0.083007300000000006 -0.0060608800000000003
0.0019109299999999999 0.087717799999999999 -0.0062892
-0.086944800000000003 0.092441800000000005 -0.0057695200000000002
0.022372800000000002 0.094686099999999995 -0.0079787799999999996
0.026520200000000001 0.0960453 -0.00603346
0.049798599999999998 0.100743 -0.00703361
-0.027087400000000001 0.100216 -0.0063194599999999998
-0.083215499999999998 0.10467899999999999 -0.0059257299999999997
0.030810000000000001 0.107711 -0.0063334200000000002
0.054575100000000001 0.108552 -0.0067548900000000004
0.065030900000000003 0.111752 -0.0077105699999999999
0.0573638 0.112125 -0.00758597
0.058215200000000002 0.116744 -0.0071157700000000004
-0.018069100000000001 0.115859 -0.0059381
0.067324300000000004 0.120283 -0.0066096200000000001
-0.035700999999999997 0.121294 -0.0071560299999999999
0.068864400000000006 0.123645 -0.0077200400000000001
-0.067593200000000006 0.12523100000000001 -0.0056441800000000004
-0.065546800000000002 0.127107 -0.0061843899999999997
0.0307482 0.129576 -0.0072192200000000002
-0.030762500000000002 0.13613900000000001 -0.0058457500000000003
0.082891599999999996 0.137291 -0.0076380299999999996
-0.0015811499999999999 0.14072499999999999 -0.0070062800000000001
-0.083085699999999998 0.13981299999999999 -0.0062464299999999999
0.072883400000000001 0.141376 -0.0078266199999999994
-0.066555199999999995 0.14313000000000001 -0.0065136700000000001
-0.091789200000000001 0.144569 -0.0069741500000000001
0.049802399999999997 0.14401900000000001 -0.0066788899999999998
0.079564499999999996 0.14908299999999999 -0.0071260500000000001
-0.078747700000000004 0.14871300000000001 -0.0058352300000000003
0.0101841 0.14798700000000001 -0.0068275200000000001
0.018113400000000002 0.15162900000000001 -0.00720596
0.026326800000000001 0.15208099999999999 -0.00634557
-0.054749699999999998 0.157554 -0.0060142700000000004
-0.054654399999999999 0.16098199999999999 -0.0058122900000000003
-0.071183099999999999 0.16324 -0.0069423699999999998
-0.0183438 0.16550999999999999 -0.0062237200000000003
-0.085800299999999996 0.17136100000000001 -0.0075288799999999999
-0.096122799999999994 0.173785 -0.0070286899999999998
-0.034575700000000001 0.177567 -0.0068053699999999998
-0.047348599999999998 0.17854800000000001 -0.0058529300000000001
-0.059160400000000002 0.18024299999999999 -0.0057999599999999998
0.0155666 0.070932800000000004 -0.0057850899999999997
0.079382900000000006 0.096425399999999994 -0.0055037000000000003
-0.0195427 0.11196 -0.0051216100000000004
-0.089247999999999994 0.14530000000000001 -0.0079314799999999994
-0.079533099999999995 0.164408 -0.0056726399999999996
-0.029713699999999999 0.175093 -0.0059632699999999997
0.065667699999999996 0.10895100000000001 -0.00524261
-0.035121300000000001 0.18183299999999999 -0.0060969300000000004
0.047086500000000003 0.100421 -0.0052135699999999998
-0.0064853799999999998 0.13322700000000001 -0.0053852700000000002
0.078836699999999996 0.14410899999999999 -0.0066448399999999999
0.036621099999999997 0.0579205 -0.0057778700000000001
0.055196500000000003 0.052974399999999998 -0.0046997499999999999
0.049554099999999997 0.078506000000000006 -0.0045255900000000003
0.033697100000000001 0.112596 -0.0050161199999999998
-0.055997100000000001 0.13403200000000001 -0.0052772000000000001
-0.017754800000000001 0.161409 -0.0059251800000000004
0.040504999999999999 0.087712999999999999 -0.0046844800000000004
0.030337099999999999 0.100831 -0.0049820100000000003
0.0335021 0.13139200000000001 -0.0047804800000000001
0.0101838 0.14455799999999999 -0.0047789099999999999
-0.083795499999999995 0.16484299999999999 -0.0050594899999999998
-0.047054400000000003 0.057436399999999999 -0.0045407499999999996
-0.10064099999999999 0.14302799999999999 -0.0044924800000000001
0.043404699999999997 0.067127400000000004 -0.0044507399999999999
-0.0113521 0.12479 -0.0043751700000000003
-0.063338099999999994 0.17951800000000001 -0.00440121
0.040533800000000002 0.091730900000000004 -0.0043366799999999999
-0.099022399999999997 0.17599400000000001 -0.0044484900000000003
0.044587399999999999 0.074611499999999997 -0.0016250100000000001
0.0023268099999999999 0.10082199999999999 -0.0019890400000000001
-0.051464299999999998 0.13617000000000001 -0.0026433799999999999
-0.083948599999999998 0.150036 -0.00253959
-0.047076899999999998 0.17746300000000001 -0.00228335
0.070921100000000001 0.055693300000000001 -0.0023495299999999998
0.035002199999999997 0.059131000000000003 -0.00126892
0.073142299999999993 0.068080600000000005 -0.00301236
0.051305900000000002 0.078768599999999994 -0.00124515
0.021876699999999999 0.083399600000000004 -0.00194111
-0.0304414 0.095518800000000001 -0.0018136999999999999
-0.025685800000000002 0.099329600000000004 -0.0018744899999999999
0.067302600000000004 0.112719 -0.00201928
0.0777278 0.115005 -0.0030914599999999999
0.071402900000000005 0.119015 -0.0037019000000000002
-0.0100833 0.123936 -0.0028316000000000001
-0.034745400000000003 0.132247 -0.0030874800000000001
-0.0036729900000000001 0.13427500000000001 -0.00435374
0.00173032 0.136545 -0.0032035399999999999
0.0061377300000000001 0.140205 -0.0034798699999999999
-0.0306909 0.14578099999999999 -0.0029977599999999999
-0.025944999999999999 0.15342800000000001 -0.0024707100000000001
-0.0233622 0.160354 -0.0038285200000000002
-0.095173300000000002 0.17002900000000001 -0.0018873099999999999
-0.030922000000000002 0.17366300000000001 -0.0022893200000000001
-0.055258500000000002 0.17865200000000001 -0.00193611
-0.051734299999999997 0.055336499999999997 -0.0018859899999999999
-0.0146401 0.059297000000000002 -0.00190796
0.017241599999999999 0.066719700000000007 -0.0017278199999999999
0.0155836 0.077938499999999994 -0.00250519
0.00051628799999999995 0.088208900000000007 -0.0034378299999999998
-0.035624700000000002 0.0937698 -0.0016870800000000001
0.069740499999999997 0.094705499999999998 -0.0031682899999999998
0.032620200000000002 0.099704799999999996 -0.00362584
-0.082097100000000006 0.107532 -0.0027281100000000002
0.0054785199999999997 0.11278299999999999 -0.0026140899999999999
0.0715118 0.116742 -0.0016938400000000001
0.038700999999999999 0.12438399999999999 -0.0030714399999999999
0.036539500000000003 0.12948399999999999 -0.0034869599999999999
0.027024699999999999 0.13683400000000001 -0.0033246
-0.035646499999999998 0.14085800000000001 -0.0028917299999999999
0.0139857 0.143486 -0.0037088899999999998
0.034720800000000003 0.144427 -0.00313606
0.0309457 0.147566 -0.0038013500000000002
-0.078628900000000002 0.15142800000000001 -0.00162872
-0.027009600000000002 0.16522600000000001 -0.00357114
-0.087603 0.16920499999999999 -0.0016476500000000001
-0.059048099999999999 0.17822199999999999 -0.0015788
-0.034039300000000002 0.18398300000000001 -0.0022005900000000001
0.057975499999999999 0.052945600000000002 -0.00171193
-0.071249000000000007 0.055359999999999999 -0.001817
-0.046591199999999999 0.057444099999999998 -0.0027468900000000001
-0.083230299999999993 0.067058199999999998 -0.0015856399999999999
0.067194500000000004 0.073107699999999998 -0.00198065
-0.0012400899999999999 0.087618399999999999 -0.0013921199999999999
-0.086155700000000002 0.094629099999999994 -0.0020263899999999999
-0.046065000000000002 0.099899199999999994 -0.00189908
0.0024170900000000002 0.104828 -0.0013686799999999999
0.081049599999999999 0.109511 -0.0015220500000000001
-0.0754716 0.116233 -0.00172193
0.013826 0.13227900000000001 -0.0026457299999999998
-0.083053600000000005 0.140153 -0.0018101599999999999
-0.067135600000000004 0.143231 -0.0018055600000000001
-0.074959399999999995 0.15188399999999999 -0.00173324
-0.0631684 0.16220399999999999 -0.0015333899999999999
-0.078523999999999997 0.17508099999999999 -0.00296591
-0.034740100000000003 0.18188699999999999 -0.0017442499999999999
0.035805700000000003 0.104612 -0.0029448399999999998
0.034880800000000003 0.136377 -0.0026479099999999998
0.017737900000000001 0.14017199999999999 -0.0027612100000000001
0.0099388299999999992 0.13611300000000001 -0.0023285200000000002
0.034811700000000001 0.14049900000000001 -0.0025467300000000001
0.039613599999999999 0.104697 -0.0023121299999999999
-0.0016846400000000001 0.12875300000000001 -0.00176319
-0.038868600000000003 0.14052500000000001 -0.0015198200000000001
0.078360100000000002 0.083618499999999998 -0.0013675899999999999
0.0097048700000000009 0.13209499999999999 -0.0020344500000000001
0.040035399999999999 0.13616900000000001 -0.0020409500000000001
-0.056277899999999999 0.15478800000000001 -0.00098200700000000002
0.0589854 0.073949399999999998 -0.00084809499999999999
0.018853000000000002 0.082064100000000001 -0.00087671299999999999
-0.019449600000000001 0.105265 -0.00093712299999999999
0.043112999999999999 0.116854 -0.00157394
0.0059635000000000001 0.12427100000000001 -0.0013068400000000001
0.0019057 0.12851000000000001 -0.00118008
-0.031335000000000002 0.15764700000000001 -0.00094537400000000002
0.072357599999999994 0.078778100000000004 -0.00081291000000000002
0.033788100000000001 0.063431100000000004 -0.000299816
-0.0434487 0.13628299999999999 -0.00048481000000000002
0.072388900000000006 0.083115999999999995 -0.00037976999999999998
-0.0061075799999999996 0.120656 -0.00038742699999999998
-0.037894700000000003 0.17083100000000001 -0.00033468400000000002
0.064481300000000005 0.091959899999999997 -0.00028409300000000002
0.026483199999999998 0.0543154 0.0022517100000000001
0.031024300000000001 0.053502800000000003 0.00205265
-0.059216199999999997 0.053377000000000001 0.00194031
-0.070701799999999995 0.055682099999999998 0.0018364200000000001
-0.0390292 0.055288299999999999 0.0017140199999999999
-0.0757322 0.059115500000000001 0.00214167
-0.015435600000000001 0.060281800000000003 0.0013024
0.073115899999999998 0.062140399999999998 0.0018078599999999999
0.075381900000000002 0.067186599999999999 0.0017128099999999999
0.076942200000000002 0.071260199999999996 0.0013709799999999999
-0.0071949500000000003 0.075458200000000003 0.0014116599999999999
0.0599137 0.075834700000000005 0.0011710900000000001
-0.0067240499999999996 0.079171699999999998 0.0022704499999999998
-0.086219100000000007 0.078623100000000001 0.00166701
0.017367500000000001 0.080626699999999996 0.0019688000000000002
0.070658100000000001 0.083060499999999995 0.00048159599999999999
0.080586699999999997 0.083379599999999998 0.0016274
-0.0025436600000000001 0.091345200000000001 0.0011959500000000001
-0.039135799999999998 0.093546299999999999 0.0022016399999999999
-0.043678599999999998 0.094960100000000006 0.0022084299999999999
-0.045852400000000001 0.097077700000000003 0.00176961
0.083579500000000001 0.100175 0.00159851
-0.0179355 0.10377 0.00102969
0.00086454299999999995 0.10865 0.000259344
-0.013146400000000001 0.111791 0.00026859099999999999
0.068547800000000006 0.111165 0.00078380599999999996
0.072434200000000004 0.114608 0.00029128299999999998
-0.074249899999999994 0.115741 0.00143717
0.00047743599999999997 0.11947000000000001 0.000120475
-0.063090599999999997 0.124261 0.0018210500000000001
-0.051383999999999999 0.13109699999999999 0.000549612
-0.079135300000000006 0.14045199999999999 0.00177769
-0.071220699999999998 0.142184 0.00163072
-0.066912899999999997 0.143871 0.00192509
-0.063632900000000006 0.14483199999999999 0.0015030899999999999
-0.055225900000000001 0.146318 0.0025195199999999999
-0.092246700000000001 0.15257000000000001 0.0023006200000000002
-0.039461299999999998 0.153305 0.00124935
-0.059001600000000001 0.153862 0.00207573
-0.047186600000000002 0.15773100000000001 0.00165314
-0.055175099999999998 0.160304 0.0021161499999999998
-0.071171899999999996 0.16381000000000001 0.0019365700000000001
-0.036212500000000002 0.168574 8.4058299999999994e-05
-0.070053599999999994 0.17080999999999999 0.0019204199999999999
-0.039177799999999999 0.17340900000000001 0.00062198799999999997
-0.047384799999999998 0.17616499999999999 0.00030032399999999998
-0.054903500000000001 0.176902 0.00143739
-0.083562300000000006 0.181141 0.0018115
0.044517399999999999 0.074271900000000002 0.00011989600000000001
-0.0019599000000000001 0.11261500000000001 0.0010450100000000001
-0.089705999999999994 0.15101400000000001 0.00083070699999999997
0.0101797 0.059049600000000001 0.0025984900000000002
-0.0058590200000000004 0.112639 0.00139105
0.0670428 0.079101199999999997 0.0020140100000000001
-0.042397499999999998 0.16561400000000001 0.0026959800000000002
0.077905100000000005 0.072458900000000007 0.00320711
-0.031451399999999997 0.093274800000000005 0.0032044600000000001
-0.043169600000000002 0.15310799999999999 0.0028308999999999999
-0.051104700000000003 0.17333799999999999 0.00305149
-0.0856687 0.079918400000000001 0.0029654600000000001
-0.0058267600000000003 0.104771 0.0023483100000000002
-0.042625200000000002 0.148481 0.0029980599999999999
-0.054541399999999997 0.17507600000000001 0.0033621499999999999
-0.013883700000000001 0.100202 0.00336908
-0.0084870899999999992 0.077645400000000003 0.0035903799999999998
0.0074141900000000002 0.059835899999999997 0.0051201399999999996
-0.047349200000000001 0.14494299999999999 0.0052117700000000001
0.0308312 0.052950799999999999 0.0045250000000000004
0.063502900000000001 0.053351900000000001 0.0062217599999999998
0.030605500000000001 0.054163000000000003 0.0066464100000000002
-0.067032900000000006 0.055434400000000002 0.0059068899999999997
0.050635699999999999 0.055414499999999998 0.0062331299999999999
-0.021453 0.057739699999999998 0.0061350600000000003
0.070967199999999994 0.059374299999999998 0.0060417500000000002
0.018575299999999999 0.062586500000000003 0.0050358800000000004
-0.0144003 0.063228000000000006 0.0066133199999999998
-0.0117749 0.068016599999999997 0.0063578200000000001
0.078449500000000005 0.071623099999999995 0.00668996
0.016920999999999999 0.075477799999999998 0.00644664
0.018018900000000001 0.079200599999999996 0.0060917200000000001
0.054841599999999997 0.079970600000000003 0.0060358800000000004
0.059596400000000001 0.083771600000000002 0.0059728899999999998
0.083543900000000004 0.086987700000000001 0.0058754200000000001
-0.034848799999999999 0.091200100000000006 0.0061710100000000002
-0.022301000000000001 0.091859899999999994 0.00567038
0.083812800000000007 0.096532300000000001 0.0061314400000000002
0.066922700000000002 0.100647 0.0062799400000000003
0.080321000000000004 0.104655 0.0062974299999999997
0.071503399999999995 0.107975 0.0056979099999999996
-0.048239700000000003 0.116511 0.0043026699999999998
-0.051694999999999998 0.12303699999999999 0.0042257199999999997
-0.072116799999999995 0.14247199999999999 0.0055214799999999996
-0.0961447 0.14421400000000001 0.0063667000000000003
-0.058980100000000001 0.14480199999999999 0.0059972300000000001
-0.100263 0.153332 0.0059411899999999998
-0.087931599999999999 0.152896 0.0060703900000000002
-0.055223500000000002 0.161438 0.0064593000000000003
-0.072817499999999993 0.16383300000000001 0.0048083900000000001
-0.066946800000000001 0.16988200000000001 0.0058172500000000004
-0.091854699999999997 0.173235 0.0058144
-0.054802999999999998 0.17360700000000001 0.0045335200000000001
-0.063196299999999997 0.17626 0.0044944900000000003
-0.086823300000000006 0.18041399999999999 0.0044638999999999998
-0.082107200000000005 0.068095900000000001 0.0050041499999999997
-0.0133919 0.095265900000000001 0.0053454699999999997
0.0358908 0.123219 0.0060616300000000001
-0.063628500000000004 0.152534 0.0068952600000000003
-0.093396699999999999 0.17719199999999999 0.0064522199999999998
-0.059576400000000002 0.120266 0.00576357
0.038787299999999997 0.120364 0.0065059799999999997
0.037926399999999999 0.123115 0.00636952
-0.0123614 0.088853600000000005 0.0067541600000000004
-0.063845499999999999 0.116287 0.0069334799999999997
0.022642900000000001 0.060272300000000001 0.0075748400000000002
0.038237399999999998 0.077155600000000005 0.0072908199999999999
0.037947799999999997 0.112884 0.0067909600000000004
-0.055328500000000003 0.116551 0.0067003499999999999
0.0357834 0.108441 0.0076191399999999999
-0.0219174 0.087289199999999997 0.0078271799999999996
-0.0145995 0.060844500000000003 0.0078035800000000001
-0.081950899999999993 0.092675900000000005 0.0087528299999999996
0.034451900000000001 0.054424599999999997 0.010097999999999999
0.067035300000000006 0.055448499999999998 0.0098908299999999998
-0.013653 0.059319200000000002 0.0087883800000000002
0.013485 0.065698699999999999 0.0083614799999999993
0.080651700000000007 0.075360099999999999 0.010016300000000001
0.0598208 0.083919199999999999 0.0103296
-0.015222599999999999 0.091287900000000005 0.0083580500000000005
0.071468000000000004 0.103394 0.0096138300000000003
0.039235600000000002 0.117205 0.010409
-0.055356500000000003 0.14721000000000001 0.0086902799999999999
-0.10030699999999999 0.15821299999999999 0.0100467
-0.055664699999999998 0.16542999999999999 0.0084784999999999999
-0.083306400000000003 0.17440900000000001 0.010414
-0.055207600000000003 0.055660099999999997 0.0098215100000000003
0.0094127099999999995 0.063849299999999998 0.0098098400000000002
-0.079275200000000004 0.071258299999999997 0.0106327
0.019618199999999999 0.078886600000000001 0.0092824699999999993
-0.030984600000000001 0.086767399999999995 0.0093244799999999996
0.068010600000000004 0.099818100000000007 0.0097537300000000004
0.038897099999999997 0.104506 0.0097143200000000002
-0.055447799999999998 0.108413 0.0086527099999999992
0.035791999999999997 0.11634799999999999 0.0095064899999999994
-0.055370799999999998 0.14422199999999999 0.0093989099999999999
-0.101396 0.149009 0.010023900000000001
-0.063326300000000002 0.15124699999999999 0.0085348500000000001
-0.084651000000000004 0.16800699999999999 0.0092392199999999994
0.0380886 0.053035600000000002 0.0090356900000000007
-0.058896999999999998 0.055862200000000001 0.0097846400000000007
0.018164400000000001 0.0589919 0.010108199999999999
0.0191874 0.071301100000000006 0.0101268
0.051813600000000001 0.078034199999999998 0.0096279299999999998
0.061226900000000001 0.085521 0.0086145700000000002
-0.046277499999999999 0.093208100000000002 0.010252000000000001
0.039244599999999998 0.12010899999999999 0.0095758600000000003
-0.066020999999999996 0.15110599999999999 0.0089572499999999999
-0.084016300000000002 0.176817 0.0084061899999999991
-0.0121066 0.082276699999999994 0.0091975900000000003
-0.013776999999999999 0.0557396 0.010456500000000001
0.022069200000000001 0.066858799999999996 0.010180399999999999
-0.063597600000000004 0.10839 0.0098505299999999997
-0.030236099999999998 0.083322900000000005 0.0107863
-0.085822200000000001 0.15043500000000001 0.0109449
0.0266605 0.056935399999999997 0.010977300000000001
-0.0801616 0.075387399999999993 0.011177899999999999
0.021184100000000001 0.079535499999999995 0.0114
0.069895499999999999 0.101008 0.011022000000000001
0.0416715 0.112771 0.0105877
-0.071013900000000005 0.142842 0.0107873
0.026174200000000002 0.065029900000000002 0.011015799999999999
0.00310035 0.056487700000000002 0.0115625
-0.034531300000000001 0.057820299999999998 0.011192499999999999
-0.058662199999999998 0.101298 0.011660800000000001
-0.0197389 0.075285400000000002 0.0114993
0.031309299999999998 0.058208299999999998 0.0142991
0.041522799999999999 0.067107899999999998 0.013367199999999999
0.035123700000000001 0.0900585 0.0118855
-0.087073999999999999 0.15174499999999999 0.013720100000000001
-0.026737799999999999 0.053446100000000003 0.013634
0.036075200000000002 0.056077799999999997 0.0130064
0.0057763800000000002 0.0563829 0.013037999999999999
-0.047253200000000002 0.059651000000000003 0.0134483
-0.0593138 0.057991099999999997 0.014465199999999999
-0.035030499999999999 0.059501999999999999 0.0135353
-0.067021399999999995 0.060419500000000001 0.0124552
0.013605000000000001 0.064741699999999999 0.013811199999999999
0.0073580599999999996 0.065557299999999999 0.0135432
-0.0096901299999999999 0.071179500000000007 0.014122900000000001
-0.077924800000000002 0.075113100000000002 0.012477800000000001
-0.017667800000000001 0.079129099999999994 0.013598600000000001
0.022795200000000002 0.078526100000000001 0.013618399999999999
-0.017871499999999998 0.082459400000000002 0.0126997
-0.032290300000000001 0.082352999999999996 0.0138082
0.039247600000000001 0.087363700000000002 0.013584199999999999
0.064618400000000006 0.090919799999999995 0.013234900000000001
-0.043778900000000003 0.090951199999999996 0.014224199999999999
-0.048368899999999999 0.094109600000000002 0.0129196
-0.055105399999999999 0.096461000000000005 0.0140874
0.077900899999999995 0.098877900000000005 0.013023399999999999
0.043299999999999998 0.10864 0.0137392
-0.079097500000000001 0.142069 0.0141475
-0.075609700000000002 0.14215900000000001 0.013446700000000001
-0.071229100000000004 0.144757 0.0137126
-0.079978099999999996 0.15140700000000001 0.012836500000000001
-0.10476199999999999 0.157801 0.012773899999999999
-0.066060499999999994 0.16358800000000001 0.011898000000000001
-0.070996299999999998 0.16824600000000001 0.0135368
-0.090903999999999999 0.17477300000000001 0.013788399999999999
0.0084214500000000005 0.057044600000000001 0.0129736
-0.074030299999999993 0.095913700000000005 0.0127289
-0.067492700000000003 0.063130099999999995 0.0142538
0.035816399999999998 0.096457399999999999 0.014120499999999999
-0.078810000000000005 0.165662 0.0142583
0.057227 0.081227499999999994 0.013362499999999999
0.0289471 0.068237999999999993 0.014751999999999999
0.081186599999999998 0.088350100000000001 0.015674500000000001
0.045474300000000002 0.10037 0.0145608
0.026090800000000001 0.074894500000000003 0.015663199999999999
-0.071323899999999996 0.071162900000000001 0.015051699999999999
0.025271600000000002 0.079574199999999998 0.015906400000000001
0.045276299999999998 0.10372099999999999 0.0154799
0.011727 0.065130099999999996 0.015112499999999999
-0.026313799999999998 0.0532392 0.018351900000000001
0.043243299999999998 0.055895 0.0170943
0.037959300000000001 0.058866399999999999 0.015915200000000001
-0.050345099999999997 0.059197699999999999 0.017376599999999999
-0.049415300000000002 0.0612708 0.0157471
-0.047119899999999999 0.063085100000000005 0.018017200000000001
0.0094916199999999992 0.063462599999999994 0.017943299999999999
0.035580899999999999 0.067120600000000002 0.017762699999999999
-0.011396 0.071729299999999996 0.017163299999999999
-0.016605700000000001 0.073948600000000003 0.017977300000000002
0.051311500000000003 0.076037900000000005 0.0185712
0.059704199999999999 0.082859600000000005 0.0175838
0.030346700000000001 0.087873599999999996 0.018244
0.0674347 0.091750300000000007 0.0173554
0.033495900000000002 0.099569500000000005 0.018066700000000002
0.042901099999999998 0.107764 0.017743800000000001
-0.091982999999999995 0.14449799999999999 0.018181099999999999
-0.086112499999999995 0.17108899999999999 0.016354299999999999
0.0137267 0.057994299999999999 0.017390200000000001
0.07392 0.064177100000000001 0.017747499999999999
-0.0682841 0.080670500000000006 0.0160479
-0.064138299999999995 0.089665499999999995 0.015932399999999999
0.039471600000000003 0.107762 0.017957500000000001
-0.088744900000000002 0.15118300000000001 0.016670000000000001
-0.062853599999999996 0.087356100000000006 0.017130300000000001
-0.091690099999999997 0.15195700000000001 0.016759900000000001
0.043559 0.071186600000000003 0.018318999999999998
-0.062457699999999998 0.082883200000000004 0.017435099999999999
-0.052451299999999999 0.094072000000000003 0.0172234
-0.083102599999999999 0.14450299999999999 0.018567799999999999
0.030166200000000001 0.083100099999999996 0.019348400000000002
-0.062654000000000001 0.055935400000000003 0.019613200000000001
0.029874299999999999 0.079009300000000005 0.018520700000000001
-0.091761899999999993 0.14987500000000001 0.018737899999999998
0.075478299999999998 0.088085999999999998 0.019872999999999998
-0.055419999999999997 0.087868799999999997 0.019791199999999998
0.043632299999999999 0.078965099999999996 0.022693999999999999
0.0390386 0.071428699999999998 0.022257200000000001
-0.0262896 0.054347800000000002 0.02247
-0.050863199999999997 0.054951399999999997 0.021655299999999999
0.034336600000000002 0.055902899999999998 0.022336000000000002
0.0501273 0.056887899999999998 0.0204587
0.017523500000000001 0.058195700000000003 0.022703999999999998
-0.066131300000000004 0.059321800000000001 0.022247200000000002
-0.067118399999999995 0.063324900000000003 0.0220168
-0.010959999999999999 0.063058100000000006 0.0212363
0.034827499999999997 0.067125500000000005 0.022789199999999999
-0.016661499999999999 0.070000999999999994 0.020576299999999999
0.029371700000000001 0.071675699999999995 0.0223088
0.055221300000000001 0.075601799999999997 0.022176999999999999
0.078024499999999997 0.078703800000000004 0.020806000000000002
0.060314600000000003 0.081788799999999995 0.0206941
0.031994399999999999 0.086738899999999994 0.0216288
0.0331959 0.089154700000000003 0.022481999999999999
0.047247299999999999 0.100354 0.022511400000000001
0.039064099999999997 0.104878 0.0227639
-0.0927954 0.14398 0.021946400000000001
0.0136998 0.0577031 0.021779199999999999
-0.030463199999999999 0.070982500000000004 0.021867500000000002
0.067454100000000003 0.086728200000000005 0.020990700000000001
-0.021712599999999999 0.053293199999999999 0.0224771
-0.0633793 0.074992500000000004 0.0216616
0.059137099999999998 0.059232 0.022619
-0.046898000000000002 0.079426300000000005 0.022392499999999999
-0.0342656 0.072581900000000005 0.0226664
-0.031524400000000001 0.058831000000000001 0.023382699999999999
-0.035371600000000003 0.062322700000000002 0.023599700000000001
-0.041310800000000002 0.077254100000000006 0.0220133
-0.065351300000000001 0.056570200000000001 0.0230198
-0.0134223 0.059428000000000002 0.0238219
0.054529300000000003 0.071633199999999994 0.023815099999999999
-0.018200299999999999 0.055153099999999997 0.025473900000000001
-0.065836900000000004 0.056310699999999998 0.025650300000000001
-0.067032400000000006 0.059297900000000001 0.025747800000000001
-0.0341768 0.063888899999999998 0.025300599999999999
-0.026838500000000001 0.0661611 0.024559399999999999
0.035264299999999998 0.071178099999999994 0.0255569
-0.038859200000000003 0.074776400000000007 0.0258176
0.071757799999999997 0.075829400000000005 0.024198600000000001
-0.047217299999999997 0.078921400000000003 0.0263889
0.047006199999999998 0.087631600000000004 0.026169100000000001
0.037682199999999999 0.0969198 0.026325500000000002
0.042130899999999999 0.10324899999999999 0.025134699999999999
-0.067719699999999994 0.063608999999999999 0.0259098
0.0342663 0.083790500000000004 0.026040299999999999
0.013040700000000001 0.062147599999999997 0.025153399999999999
0.056101999999999999 0.070066400000000001 0.024822799999999999
-0.055671100000000001 0.076259499999999994 0.026667300000000001
-0.042571100000000001 0.067259399999999997 0.026463500000000001
0.059240599999999997 0.067186099999999999 0.0254004
-0.030714200000000001 0.063539999999999999 0.0258087
0.043995100000000002 0.082926700000000006 0.0276601
-0.0657113 0.055647700000000001 0.0296143
-0.043453699999999998 0.070958599999999997 0.030331799999999999
0.039716099999999997 0.078742599999999996 0.028248499999999999
-0.059279400000000003 0.053808000000000002 0.030264200000000002
-0.063874299999999995 0.055194500000000001 0.0312313
-0.066226499999999994 0.067189200000000004 0.030791099999999998
0.038954900000000001 0.091450100000000006 0.030166200000000001
-0.043409200000000002 0.056238900000000001 0.030982200000000001
-0.050849999999999999 0.076660599999999995 0.0312343
-0.0598693 0.055784599999999997 0.033795499999999999
-0.0551935 0.075236499999999998 0.035227300000000003
-0.043787199999999998 0.056266799999999999 0.0336995
-0.046380299999999999 0.066075999999999996 0.032633700000000002
-0.055106000000000002 0.056275100000000002 0.0348527
-0.062222 0.073913099999999995 0.035490899999999999
-0.0545316 0.068047099999999999 0.036358300000000003
-0.055264399999999998 0.060247599999999998 0.037119600000000003
-0.059159299999999998 0.067203799999999994 0.038189399999999998
-0.062671599999999994 0.072114200000000003 0.0408262
