<svg xmlns="http://www.w3.org/2000/svg" width="1100" height="600">
<style>text{font-family:Helvetica,Arial,sans-serif;font-size:12px;} .title{font-size:20px;font-weight:bold;} .small{font-size:11px;fill:#555;} </style>
<rect width="100%" height="100%" fill="white"/>
<text x="40" y="32" class="title">RTDL Embree Evaluation: Embree Scaling by Workload</text>
<text x="40" y="52" class="small">Scale hints are workload-specific relative size markers for local Embree evaluation.</text>
<line x1="90" y1="70" x2="90" y2="520" stroke="#333" stroke-width="1"/>
<line x1="90" y1="520" x2="1060" y2="520" stroke="#333" stroke-width="1"/>
<line x1="90.0" y1="520" x2="90.0" y2="526" stroke="#333" stroke-width="1"/>
<text x="90.0" y="560" text-anchor="middle" class="small">0</text>
<line x1="332.5" y1="520" x2="332.5" y2="526" stroke="#333" stroke-width="1"/>
<text x="332.5" y="560" text-anchor="middle" class="small">48</text>
<line x1="575.0" y1="520" x2="575.0" y2="526" stroke="#333" stroke-width="1"/>
<text x="575.0" y="560" text-anchor="middle" class="small">96</text>
<line x1="817.5" y1="520" x2="817.5" y2="526" stroke="#333" stroke-width="1"/>
<text x="817.5" y="560" text-anchor="middle" class="small">144</text>
<line x1="1060.0" y1="520" x2="1060.0" y2="526" stroke="#333" stroke-width="1"/>
<text x="1060.0" y="560" text-anchor="middle" class="small">192</text>
<line x1="84" y1="520.0" x2="90" y2="520.0" stroke="#333" stroke-width="1"/>
<text x="80" y="524.0" text-anchor="end" class="small">0.0000s</text>
<line x1="90" y1="520.0" x2="1060" y2="520.0" stroke="#eee" stroke-width="1"/>
<line x1="84" y1="407.5" x2="90" y2="407.5" stroke="#333" stroke-width="1"/>
<text x="80" y="411.5" text-anchor="end" class="small">0.0003s</text>
<line x1="90" y1="407.5" x2="1060" y2="407.5" stroke="#eee" stroke-width="1"/>
<line x1="84" y1="295.0" x2="90" y2="295.0" stroke="#333" stroke-width="1"/>
<text x="80" y="299.0" text-anchor="end" class="small">0.0006s</text>
<line x1="90" y1="295.0" x2="1060" y2="295.0" stroke="#eee" stroke-width="1"/>
<line x1="84" y1="182.5" x2="90" y2="182.5" stroke="#333" stroke-width="1"/>
<text x="80" y="186.5" text-anchor="end" class="small">0.0009s</text>
<line x1="90" y1="182.5" x2="1060" y2="182.5" stroke="#eee" stroke-width="1"/>
<line x1="84" y1="70.0" x2="90" y2="70.0" stroke="#333" stroke-width="1"/>
<text x="80" y="74.0" text-anchor="end" class="small">0.0012s</text>
<line x1="90" y1="70.0" x2="1060" y2="70.0" stroke="#eee" stroke-width="1"/>
<polyline fill="none" stroke="#1565c0" stroke-width="2" points="100.1,383.2 120.3,451.9 211.2,280.1"/>
<circle cx="100.1" cy="383.2" r="4" fill="#1565c0"/>
<text x="105.1" y="377.2" class="small">lsi_authored_minimal</text>
<circle cx="120.3" cy="451.9" r="4" fill="#1565c0"/>
<text x="125.3" y="445.9" class="small">lsi_county_slice</text>
<circle cx="211.2" cy="280.1" r="4" fill="#1565c0"/>
<text x="216.2" y="274.1" class="small">lsi_county_tiled_x8</text>
<rect x="90" y="572" width="14" height="10" fill="#1565c0"/>
<text x="110" y="581">lsi</text>
<polyline fill="none" stroke="#6a1b9a" stroke-width="2" points="100.1,468.6 120.3,431.6 211.2,326.2"/>
<circle cx="100.1" cy="468.6" r="4" fill="#6a1b9a"/>
<text x="105.1" y="462.6" class="small">pip_authored_minimal</text>
<circle cx="120.3" cy="431.6" r="4" fill="#6a1b9a"/>
<text x="125.3" y="425.6" class="small">pip_county_polygons</text>
<circle cx="211.2" cy="326.2" r="4" fill="#6a1b9a"/>
<text x="216.2" y="320.2" class="small">pip_county_tiled_x8</text>
<rect x="260" y="572" width="14" height="10" fill="#6a1b9a"/>
<text x="280" y="581">pip</text>
<polyline fill="none" stroke="#ef6c00" stroke-width="2" points="100.1,439.0 110.2,369.7 170.8,416.2"/>
<circle cx="100.1" cy="439.0" r="4" fill="#ef6c00"/>
<text x="105.1" y="433.0" class="small">overlay_authored_minimal</text>
<circle cx="110.2" cy="369.7" r="4" fill="#ef6c00"/>
<text x="115.2" y="363.7" class="small">overlay_county_soil_fixture</text>
<circle cx="170.8" cy="416.2" r="4" fill="#ef6c00"/>
<text x="175.8" y="410.2" class="small">overlay_county_soil_tiled_x8</text>
<rect x="430" y="572" width="14" height="10" fill="#ef6c00"/>
<text x="450" y="581">overlay</text>
<polyline fill="none" stroke="#2e7d32" stroke-width="2" points="100.1,477.0 150.6,375.0 332.5,250.3 1060.0,70.0"/>
<circle cx="100.1" cy="477.0" r="4" fill="#2e7d32"/>
<text x="105.1" y="471.0" class="small">ray_authored_minimal</text>
<circle cx="150.6" cy="375.0" r="4" fill="#2e7d32"/>
<text x="155.6" y="369.0" class="small">ray_synthetic_small</text>
<circle cx="332.5" cy="250.3" r="4" fill="#2e7d32"/>
<text x="337.5" y="244.3" class="small">ray_synthetic_medium</text>
<circle cx="1060.0" cy="70.0" r="4" fill="#2e7d32"/>
<text x="1065.0" y="64.0" class="small">ray_synthetic_large</text>
<rect x="600" y="572" width="14" height="10" fill="#2e7d32"/>
<text x="620" y="581">ray_tri_hitcount</text>
</svg>